<svg width="764" height="525" viewBox="0 0 764 525" fill="none" xmlns="http://www.w3.org/2000/svg">
<path d="M763.658 500.044H0V500.425H763.658V500.044Z" fill="#EBEBEB" fill-opacity="0.5"/>
<path d="M687.138 524.618H636.553V525H687.138V524.618Z" fill="#EBEBEB" fill-opacity="0.5"/>
<path d="M450.893 512.812H409.106V513.194H450.893V512.812Z" fill="#EBEBEB" fill-opacity="0.5"/>
<path d="M635.028 510.444H605.719V510.826H635.028V510.444Z" fill="#EBEBEB" fill-opacity="0.5"/>
<path d="M106.316 513.01H80.1223V513.392H106.316V513.01Z" fill="#EBEBEB" fill-opacity="0.5"/>
<path d="M169.366 513.01H119.911V513.392H169.366V513.01Z" fill="#EBEBEB" fill-opacity="0.5"/>
<path d="M343.877 519.456H251.673V519.837H343.877V519.456Z" fill="#EBEBEB" fill-opacity="0.5"/>
<path d="M361.976 431.925H67.0663C64.756 431.921 62.5417 431.001 60.9095 429.366C59.2773 427.73 58.3606 425.515 58.3606 423.204V8.64461C58.3807 6.34757 59.3063 4.15121 60.9363 2.53262C62.5664 0.914035 64.7692 0.00393496 67.0663 0H361.976C364.289 0 366.507 0.918815 368.143 2.55432C369.778 4.18982 370.697 6.40803 370.697 8.72098V423.204C370.697 425.517 369.778 427.735 368.143 429.371C366.507 431.006 364.289 431.925 361.976 431.925ZM67.0663 0.305465C64.8573 0.30951 62.7401 1.18988 61.1795 2.75333C59.6189 4.31679 58.7424 6.43558 58.7424 8.64461V423.204C58.7424 425.413 59.6189 427.532 61.1795 429.096C62.7401 430.659 64.8573 431.539 67.0663 431.543H361.976C364.186 431.539 366.305 430.659 367.868 429.096C369.431 427.533 370.311 425.415 370.315 423.204V8.64461C370.311 6.43417 369.431 4.31542 367.868 2.7524C366.305 1.18938 364.186 0.309502 361.976 0.305465H67.0663Z" fill="#EBEBEB" fill-opacity="0.5"/>
<path d="M692.347 431.925H397.422C395.11 431.921 392.895 431.001 391.26 429.366C389.625 427.732 388.705 425.516 388.701 423.204V8.64461C388.725 6.34617 389.654 4.14984 391.287 2.53167C392.919 0.913501 395.124 0.00389205 397.422 0H692.347C694.641 0.00794891 696.84 0.919825 698.467 2.53799C700.094 4.15615 701.017 6.35021 701.037 8.64461V423.204C701.037 425.512 700.123 427.725 698.494 429.36C696.865 430.995 694.655 431.917 692.347 431.925ZM397.422 0.305465C395.212 0.309502 393.093 1.18938 391.53 2.7524C389.967 4.31542 389.087 6.43417 389.083 8.64461V423.204C389.087 425.415 389.967 427.533 391.53 429.096C393.093 430.659 395.212 431.539 397.422 431.543H692.347C694.557 431.539 696.676 430.659 698.239 429.096C699.802 427.533 700.682 425.415 700.686 423.204V8.64461C700.682 6.43417 699.802 4.31542 698.239 2.7524C696.676 1.18938 694.557 0.309502 692.347 0.305465H397.422Z" fill="#EBEBEB" fill-opacity="0.5"/>
<path d="M675.762 500.044V40.8099L459.005 40.8099V500.044H675.762Z" fill="#FAFAFA" fill-opacity="0.5"/>
<path d="M459.004 500.044V40.8099H458.194V500.044H459.004Z" fill="#F0F0F0" fill-opacity="0.5"/>
<path d="M651.614 55.8845H474.674V500.044H651.614V55.8845Z" fill="#2C2323" fill-opacity="0.02"/>
<path d="M661.099 55.8845H479.104V500.044H661.099V55.8845Z" fill="#F0F0F0" fill-opacity="0.5"/>
<path d="M647.825 281.668V287.258L653.415 281.668H647.825Z" fill="#E0E0E0" fill-opacity="0.5"/>
<path d="M647.825 486.787V69.157L492.36 69.157V486.787H647.825Z" fill="#EBEBEB" fill-opacity="0.5"/>
<path d="M647.843 486.787V69.157H646.163V486.787H647.843Z" fill="#2C2323" fill-opacity="0.02"/>
<path d="M618.929 279.377C618.343 279.342 617.756 279.427 617.204 279.627C616.652 279.828 616.147 280.139 615.719 280.541C615.292 280.944 614.951 281.43 614.719 281.969C614.486 282.508 614.366 283.089 614.366 283.676C614.366 284.263 614.486 284.844 614.719 285.383C614.951 285.923 615.292 286.408 615.719 286.811C616.147 287.214 616.652 287.525 617.204 287.725C617.756 287.925 618.343 288.011 618.929 287.976H646.146L647.826 287.258V279.377H618.929Z" fill="#E0E0E0" fill-opacity="0.5"/>
<path d="M651.95 282.263H624.672C624.107 282.265 623.547 282.156 623.025 281.941C622.503 281.726 622.028 281.411 621.627 281.012C621.227 280.613 620.91 280.139 620.693 279.618C620.476 279.096 620.365 278.537 620.365 277.972C620.365 276.829 620.819 275.734 621.626 274.926C622.434 274.118 623.53 273.665 624.672 273.665H651.889C652.454 273.665 653.013 273.776 653.535 273.993C654.056 274.209 654.53 274.527 654.929 274.927C655.328 275.327 655.643 275.802 655.858 276.325C656.073 276.847 656.183 277.407 656.181 277.972C656.181 279.099 655.737 280.182 654.945 280.985C654.154 281.788 653.078 282.247 651.95 282.263Z" fill="#F5F5F5" fill-opacity="0.5"/>
<path d="M90.1122 213.824H412.59C412.95 213.822 413.296 213.683 413.559 213.437C413.822 213.191 413.983 212.855 414.01 212.496L423.174 35.0519C423.187 34.8786 423.163 34.7046 423.105 34.5408C423.047 34.3771 422.955 34.2273 422.836 34.1008C422.717 33.9744 422.573 33.8742 422.413 33.8066C422.253 33.7389 422.08 33.7053 421.906 33.7079H99.4135C99.0534 33.7148 98.7091 33.8569 98.4488 34.1058C98.1885 34.3548 98.0313 34.6925 98.0084 35.0519L88.8445 212.496C88.8316 212.668 88.8551 212.842 88.9134 213.005C88.9717 213.168 89.0636 213.316 89.1831 213.442C89.3026 213.567 89.447 213.666 89.607 213.732C89.7671 213.798 89.9392 213.829 90.1122 213.824Z" fill="#E0E0E0" fill-opacity="0.5"/>
<path d="M91.6401 213.824H414.102C414.46 213.818 414.802 213.678 415.062 213.432C415.322 213.186 415.481 212.852 415.508 212.496L424.671 35.0519C424.684 34.8786 424.661 34.7046 424.603 34.5408C424.544 34.3771 424.453 34.2273 424.334 34.1008C424.214 33.9744 424.07 33.8742 423.91 33.8066C423.75 33.7389 423.578 33.7053 423.404 33.7079H100.911C100.551 33.7148 100.206 33.8569 99.9462 34.1058C99.6859 34.3548 99.5287 34.6925 99.5058 35.0519L90.3419 212.496C90.3286 212.671 90.3529 212.847 90.413 213.012C90.4731 213.177 90.5678 213.328 90.6906 213.453C90.8134 213.579 90.9617 213.677 91.1254 213.741C91.2891 213.805 91.4646 213.834 91.6401 213.824Z" fill="#F0F0F0" fill-opacity="0.5"/>
<path d="M100.803 210.052C100.776 210.438 100.604 210.8 100.32 211.063C100.036 211.327 99.6634 211.473 99.2762 211.472C99.0924 211.475 98.9101 211.439 98.7408 211.368C98.5715 211.296 98.4189 211.19 98.2926 211.057C98.1662 210.923 98.069 210.765 98.0069 210.592C97.9449 210.419 97.9194 210.235 97.9321 210.052C97.9592 209.666 98.132 209.304 98.4156 209.04C98.6991 208.777 99.0722 208.631 99.4594 208.632C99.6432 208.629 99.8255 208.665 99.9948 208.736C100.164 208.808 100.317 208.913 100.443 209.047C100.569 209.18 100.667 209.339 100.729 209.512C100.791 209.685 100.816 209.869 100.803 210.052Z" fill="#E0E0E0" fill-opacity="0.5"/>
<path d="M107.385 210.052C107.358 210.438 107.185 210.8 106.902 211.063C106.618 211.327 106.245 211.473 105.858 211.472C105.675 211.473 105.494 211.436 105.325 211.363C105.157 211.291 105.005 211.185 104.879 211.052C104.754 210.919 104.656 210.762 104.593 210.59C104.531 210.418 104.503 210.235 104.514 210.052C104.541 209.666 104.714 209.304 104.997 209.04C105.281 208.777 105.654 208.631 106.041 208.632C106.225 208.629 106.407 208.665 106.577 208.736C106.746 208.808 106.899 208.913 107.025 209.047C107.151 209.18 107.248 209.339 107.31 209.512C107.372 209.685 107.398 209.869 107.385 210.052Z" fill="white" fill-opacity="0.5"/>
<path d="M408.511 204.034L416.82 43.6661C416.838 43.3526 416.793 43.0385 416.685 42.7435C416.577 42.4484 416.41 42.1786 416.194 41.9509C415.978 41.7232 415.717 41.5423 415.428 41.4196C415.139 41.2969 414.827 41.235 414.513 41.2376H109.05C108.397 41.2478 107.773 41.5033 107.3 41.9533C106.827 42.4033 106.541 43.0148 106.499 43.6661L98.1907 204.034C98.1717 204.347 98.2176 204.66 98.3254 204.955C98.4331 205.249 98.6005 205.518 98.817 205.744C99.0335 205.971 99.2945 206.15 99.5836 206.271C99.8727 206.392 100.184 206.452 100.497 206.447H405.96C406.61 206.438 407.233 206.184 407.705 205.737C408.178 205.291 408.465 204.683 408.511 204.034Z" fill="#FBFBFB" fill-opacity="0.5"/>
<path d="M232.383 206.447L263.097 41.207H188.579L157.865 206.447H232.383Z" fill="#2C2323" fill-opacity="0.02"/>
<path d="M282.69 206.447L313.404 41.207H276.138L245.423 206.447H282.69Z" fill="#2C2323" fill-opacity="0.02"/>
<path d="M385.662 302.714H317.62V500.043H385.662V302.714Z" fill="#2C2323" fill-opacity="0.02"/>
<path d="M372.742 500.043H385.663V485.167H359.195L372.742 500.043Z" fill="#F0F0F0" fill-opacity="0.5"/>
<path d="M131.349 302.714H89.2412V500.043H131.349V302.714Z" fill="#2C2323" fill-opacity="0.02"/>
<path d="M127.12 289.167H81.9263V302.714H127.12V289.167Z" fill="#E0E0E0" fill-opacity="0.5"/>
<path d="M385.68 302.714H120.079V496.134H385.68V302.714Z" fill="#F0F0F0" fill-opacity="0.5"/>
<path d="M392.977 289.167H115.341V302.714H392.977V289.167Z" fill="#F5F5F5" fill-opacity="0.5"/>
<path d="M257.217 396.583V455.751C257.217 458.476 259.426 460.685 262.15 460.685H370.712C373.436 460.685 375.645 458.476 375.645 455.751V396.583C375.645 393.859 373.436 391.65 370.712 391.65H262.15C259.426 391.65 257.217 393.859 257.217 396.583Z" fill="#2C2323" fill-opacity="0.02"/>
<path d="M130.112 396.583V455.751C130.112 458.476 132.32 460.685 135.045 460.685H243.607C246.331 460.685 248.54 458.476 248.54 455.751V396.583C248.54 393.859 246.331 391.65 243.607 391.65H135.045C132.32 391.65 130.112 393.859 130.112 396.583Z" fill="#2C2323" fill-opacity="0.02"/>
<path d="M375.719 475.851C375.719 476.499 375.592 477.14 375.344 477.739C375.096 478.337 374.732 478.881 374.274 479.339C373.816 479.797 373.272 480.161 372.674 480.408C372.075 480.656 371.434 480.784 370.786 480.784H135.029C134.382 480.784 133.74 480.656 133.142 480.408C132.543 480.161 131.999 479.797 131.541 479.339C131.083 478.881 130.72 478.337 130.472 477.739C130.224 477.14 130.096 476.499 130.096 475.851C130.096 474.542 130.616 473.288 131.541 472.362C132.466 471.437 133.721 470.917 135.029 470.917H370.71C371.364 470.907 372.014 471.027 372.621 471.271C373.228 471.514 373.781 471.876 374.247 472.335C374.714 472.794 375.084 473.342 375.337 473.945C375.589 474.549 375.719 475.196 375.719 475.851Z" fill="#2C2323" fill-opacity="0.02"/>
<path d="M201.025 399.577H177.596C167.88 399.733 158.398 396.589 150.7 390.657H227.937C220.234 396.591 210.747 399.735 201.025 399.577Z" fill="#F0F0F0" fill-opacity="0.5"/>
<path d="M329.335 399.577H305.906C296.185 399.73 286.699 396.586 278.994 390.657H356.246C348.544 396.591 339.056 399.735 329.335 399.577Z" fill="#F0F0F0" fill-opacity="0.5"/>
<path d="M257.199 318.262V377.431C257.199 380.155 259.408 382.364 262.133 382.364H370.694C373.419 382.364 375.628 380.155 375.628 377.431V318.262C375.628 315.538 373.419 313.329 370.694 313.329H262.133C259.408 313.329 257.199 315.538 257.199 318.262Z" fill="#2C2323" fill-opacity="0.02"/>
<path d="M130.096 318.278V377.446C130.096 380.17 132.305 382.379 135.029 382.379H243.591C246.316 382.379 248.524 380.17 248.524 377.446V318.278C248.524 315.553 246.316 313.344 243.591 313.344H135.029C132.305 313.344 130.096 315.553 130.096 318.278Z" fill="#2C2323" fill-opacity="0.02"/>
<path d="M201.025 321.271H177.596C167.878 321.422 158.396 318.272 150.7 312.336H227.937C220.236 318.274 210.748 321.424 201.025 321.271Z" fill="#F0F0F0" fill-opacity="0.5"/>
<path d="M329.335 321.271H305.906C296.183 321.419 286.697 318.27 278.994 312.336H356.246C348.545 318.274 339.058 321.424 329.335 321.271Z" fill="#F0F0F0" fill-opacity="0.5"/>
<path d="M133 500.043H120.079V485.167H146.547L133 500.043Z" fill="#F0F0F0" fill-opacity="0.5"/>
<path d="M146.026 255.566C146.026 266.929 161.773 276.139 181.155 276.139C200.536 276.139 216.283 266.975 216.283 255.566H146.026Z" fill="#F0F0F0" fill-opacity="0.5"/>
<path d="M146.026 268.609C146.026 279.957 161.773 289.167 181.155 289.167C200.536 289.167 216.283 280.003 216.283 268.609H146.026Z" fill="#E0E0E0" fill-opacity="0.5"/>
<path d="M423.557 522.678C604.979 522.678 752.051 514.091 752.051 503.499C752.051 492.907 604.979 484.321 423.557 484.321C242.135 484.321 95.0635 492.907 95.0635 503.499C95.0635 514.091 242.135 522.678 423.557 522.678Z" fill="#F5F5F5"/>
<path d="M478.89 499.262H444.074L412.425 399.676C409.479 390.312 403.614 382.137 395.688 376.345C387.763 370.553 378.192 367.448 368.376 367.485H343.928C334.111 367.446 324.539 370.549 316.613 376.341C308.687 382.134 302.822 390.311 299.878 399.676L268.213 499.262H233.481L265.672 397.778C269.011 387.147 275.663 377.863 284.655 371.282C293.647 364.701 304.508 361.168 315.651 361.2H396.601C407.745 361.173 418.606 364.707 427.6 371.287C436.594 377.867 443.251 387.149 446.598 397.778L478.89 499.262Z" fill="#0B5A79"/>
<path opacity="0.4" d="M478.89 499.262H444.074L412.425 399.676C409.479 390.312 403.614 382.137 395.688 376.345C387.763 370.553 378.192 367.448 368.376 367.485H343.928C334.111 367.446 324.539 370.549 316.613 376.341C308.687 382.134 302.822 390.311 299.878 399.676L268.213 499.262H233.481L265.672 397.778C269.011 387.147 275.663 377.863 284.655 371.282C293.647 364.701 304.508 361.168 315.651 361.2H396.601C407.745 361.173 418.606 364.707 427.6 371.287C436.594 377.867 443.251 387.149 446.598 397.778L478.89 499.262Z" fill="black"/>
<path d="M478.892 499.262H472.318L440.67 399.676C437.724 390.312 431.859 382.137 423.933 376.345C416.007 370.553 406.437 367.448 396.62 367.485H343.93C334.113 367.446 324.541 370.549 316.615 376.341C308.689 382.134 302.824 390.311 299.88 399.676L268.215 499.262H261.658L293.849 397.778C297.193 387.131 303.86 377.834 312.873 371.252C321.886 364.669 332.77 361.147 343.93 361.2H396.637C407.781 361.173 418.642 364.707 427.636 371.287C436.63 377.867 443.286 387.149 446.634 397.778L478.892 499.262Z" fill="#0B5A79"/>
<path d="M634.93 225.34C633.985 223.864 632.685 222.65 631.148 221.809C629.612 220.968 627.888 220.528 626.137 220.528H485.617C483.622 220.528 481.668 221.099 479.987 222.174C478.306 223.249 476.967 224.782 476.13 226.594L394.4 403.81H243.97C242.597 403.81 241.238 404.08 239.969 404.605C238.701 405.131 237.549 405.901 236.578 406.871C235.607 407.842 234.837 408.994 234.312 410.263C233.787 411.531 233.516 412.89 233.516 414.263C233.516 415.636 233.787 416.995 234.312 418.263C234.837 419.532 235.607 420.684 236.578 421.655C237.549 422.625 238.701 423.395 239.969 423.921C241.238 424.446 242.597 424.716 243.97 424.716H541.645C543.64 424.714 545.593 424.142 547.274 423.068C548.955 421.993 550.294 420.461 551.133 418.651L635.624 235.505C636.387 233.893 636.723 232.112 636.602 230.332C636.48 228.552 635.904 226.834 634.93 225.34Z" fill="#0B5A79"/>
<path opacity="0.5" d="M634.93 225.34C633.985 223.864 632.685 222.65 631.148 221.809C629.612 220.968 627.888 220.528 626.137 220.528H485.617C483.622 220.528 481.668 221.099 479.987 222.174C478.306 223.249 476.967 224.782 476.13 226.594L394.4 403.81H243.97C242.597 403.81 241.238 404.08 239.969 404.605C238.701 405.131 237.549 405.901 236.578 406.871C235.607 407.842 234.837 408.994 234.312 410.263C233.787 411.531 233.516 412.89 233.516 414.263C233.516 415.636 233.787 416.995 234.312 418.263C234.837 419.532 235.607 420.684 236.578 421.655C237.549 422.625 238.701 423.395 239.969 423.921C241.238 424.446 242.597 424.716 243.97 424.716H541.645C543.64 424.714 545.593 424.142 547.274 423.068C548.955 421.993 550.294 420.461 551.133 418.651L635.624 235.505C636.387 233.893 636.723 232.112 636.602 230.332C636.48 228.552 635.904 226.834 634.93 225.34Z" fill="white"/>
<path opacity="0.5" d="M541.612 424.716H384.438C381.666 424.716 379.007 423.615 377.047 421.655C375.086 419.694 373.985 417.035 373.985 414.263C373.985 411.491 375.086 408.832 377.047 406.871C379.007 404.911 381.666 403.81 384.438 403.81H534.919L616.7 226.661C617.907 224.219 620.02 222.344 622.588 221.436C625.157 220.528 627.979 220.659 630.453 221.801C632.926 222.943 634.856 225.005 635.832 227.549C636.807 230.093 636.751 232.917 635.675 235.42L551.099 418.651C550.26 420.461 548.921 421.993 547.24 423.068C545.559 424.142 543.607 424.714 541.612 424.716Z" fill="#0B5A79"/>
<path d="M486.568 248.483L484.383 249.313L482.366 250.025C481.028 250.499 479.673 250.889 478.334 251.312C475.64 252.125 472.93 252.837 470.168 253.464C464.535 254.795 458.799 255.651 453.022 256.022C446.671 256.504 440.284 256.013 434.081 254.565L432.827 254.26L432.2 254.091L431.879 254.006C431.722 253.976 431.569 253.931 431.421 253.871C429.564 253.293 427.813 252.418 426.237 251.278C423.143 249.018 420.873 245.807 419.775 242.136C418.677 238.465 418.81 234.536 420.154 230.948C420.248 230.682 420.356 230.422 420.476 230.168L420.714 229.677L421.188 228.677L422.12 226.695C424.591 221.663 427.422 216.817 430.591 212.193C433.641 207.635 436.961 203.366 440.35 199.215C443.738 195.064 447.296 191.099 450.989 187.27C454.683 183.442 458.41 179.782 462.544 176.207L471.744 184.441C466.288 192.912 460.697 201.383 455.682 210.024C454.395 212.159 453.192 214.31 451.955 216.462C450.718 218.614 449.583 220.765 448.567 222.934C446.371 227.1 444.414 231.388 442.705 235.776L442.129 237.352L441.841 238.131L441.705 238.521C441.705 238.622 441.553 238.894 441.705 238.656C442.158 237.555 442.241 236.336 441.942 235.183C441.62 233.956 440.899 232.871 439.892 232.1C439.379 231.708 438.807 231.399 438.198 231.185C438.079 231.185 438.198 231.185 438.198 231.185H438.35H438.672L439.299 231.286C443.236 231.793 447.222 231.793 451.159 231.286C455.656 230.773 460.116 229.969 464.509 228.881C466.78 228.372 469.033 227.712 471.286 227.186L474.675 226.17L476.369 225.662L477.826 225.17L486.568 248.483Z" fill="#D38A74"/>
<path d="M509.472 232.761C503.949 222.256 486.6 217.038 454.189 226.814L454.664 262.393C454.664 262.393 523.805 260.004 509.472 232.761Z" fill="#0B5A79"/>
<path opacity="0.2" d="M490.259 238.284C480.619 235.946 468.234 242.248 456.29 262.359C462.694 261.986 486.481 260.224 500.628 253.074C501.238 245.975 498.645 240.317 490.259 238.284Z" fill="black"/>
<path d="M292.153 496.907L274.939 490.215L284.545 447.402L301.759 454.077L292.153 496.907Z" fill="#D38A74"/>
<path d="M277.854 482.523L294.678 482.828C295.04 482.846 295.383 482.993 295.647 483.241C295.911 483.489 296.078 483.824 296.118 484.184L298.812 501.668C298.876 502.074 298.855 502.49 298.749 502.887C298.642 503.284 298.454 503.655 298.195 503.974C297.936 504.294 297.613 504.556 297.246 504.742C296.879 504.928 296.478 505.036 296.067 505.057C289.155 504.82 285.986 504.294 277.278 504.159C271.907 504.159 255.727 504.481 248.324 504.362C240.92 504.244 240.327 496.111 243.393 495.417C257.117 492.316 270.399 487.894 274.94 483.557C275.746 482.856 276.787 482.487 277.854 482.523Z" fill="#263238"/>
<path opacity="0.2" d="M301.758 454.094L284.545 447.402L279.597 469.478L297.336 473.849L301.758 454.094Z" fill="black"/>
<path d="M427.302 347.663C427.302 347.663 389.199 347.46 333.306 358.76C294.576 366.587 275.703 457.483 275.703 457.483L303.369 467.36C303.369 467.36 322.006 405.589 339.795 392.136C432.605 391.679 478.959 419.244 490.463 358.37C475.164 352.187 427.302 347.663 427.302 347.663Z" fill="black"/>
<path d="M270.027 462.684L307.266 470.46L310.231 458.177L271.4 449.266L270.027 462.684Z" fill="#0B5A79"/>
<path d="M460.475 178.037L469.184 168.465L484.432 178.63C484.432 178.63 475.029 190.49 464.203 186.796L460.475 178.037Z" fill="#D38A74"/>
<path d="M485.805 161.264L490.87 171.006L484.466 178.562L469.184 168.465L485.805 161.264Z" fill="#D38A74"/>
<path d="M486.616 195.657L471.215 183.238C471.057 183.113 470.927 182.956 470.834 182.777C470.74 182.599 470.686 182.402 470.673 182.201C470.66 182 470.69 181.798 470.76 181.609C470.83 181.42 470.939 181.248 471.08 181.103L497.696 153.183C497.99 152.866 498.395 152.673 498.826 152.645C499.258 152.617 499.684 152.755 500.017 153.03L515.418 165.449C515.578 165.572 515.71 165.729 515.805 165.908C515.9 166.086 515.956 166.283 515.969 166.486C515.982 166.688 515.951 166.89 515.88 167.079C515.808 167.269 515.697 167.441 515.553 167.584L488.937 195.504C488.643 195.821 488.238 196.014 487.807 196.042C487.375 196.07 486.949 195.933 486.616 195.657Z" fill="#263238"/>
<path d="M516.453 362.776C516.453 362.776 544.577 321.369 558.25 254.633C558.99 250.929 558.923 247.109 558.052 243.434C557.18 239.759 555.526 236.315 553.202 233.337C550.878 230.36 547.938 227.92 544.584 226.183C541.23 224.446 537.541 223.453 533.768 223.273C520.214 222.561 505.915 222.375 494.292 222.426C488.617 222.446 483.102 224.309 478.577 227.734C474.051 231.159 470.761 235.961 469.201 241.418C458.687 278.099 444.655 313.679 427.303 347.663L516.453 362.776Z" fill="#0B5A79"/>
<path d="M505.252 253.616C505.056 253.273 504.783 252.978 504.456 252.755C504.129 252.532 503.755 252.387 503.364 252.329C502.972 252.272 502.572 252.305 502.195 252.425C501.817 252.546 501.473 252.75 501.186 253.023L486.412 265.002L481.685 252.447C481.56 252.075 481.351 251.736 481.072 251.458C480.794 251.181 480.456 250.971 480.083 250.846C479.71 250.721 479.314 250.685 478.924 250.739C478.535 250.794 478.164 250.938 477.84 251.16C477.082 251.623 476.503 252.328 476.195 253.161C475.888 253.994 475.87 254.907 476.145 255.751L481.228 269.305L465.675 281.927C464.99 282.479 464.513 283.247 464.322 284.106C464.131 284.965 464.238 285.864 464.625 286.654C464.82 287.019 465.104 287.33 465.45 287.557C465.796 287.785 466.194 287.923 466.607 287.958C467.361 287.988 468.098 287.734 468.674 287.247L483.447 275.269L488.174 287.908C488.335 288.374 488.63 288.784 489.021 289.085C489.413 289.386 489.884 289.566 490.377 289.602C490.972 289.645 491.566 289.497 492.071 289.178C492.827 288.713 493.404 288.008 493.711 287.175C494.018 286.343 494.037 285.431 493.765 284.587L488.683 271.033L504.236 258.411C504.931 257.851 505.412 257.068 505.597 256.195C505.782 255.321 505.66 254.411 505.252 253.616Z" fill="white"/>
<path opacity="0.2" d="M558.639 246.704C549.185 233.506 540.714 231.642 538.308 232.388C516.402 239.283 539.901 299.598 543.543 306.341C549.697 289.49 554.595 272.207 558.199 254.633C558.748 252.028 558.896 249.354 558.639 246.704Z" fill="black"/>
<path d="M487.939 229.474C487.374 229.474 486.82 229.321 486.335 229.032C485.85 228.744 485.452 228.329 485.183 227.833C484.914 227.336 484.784 226.777 484.807 226.213C484.83 225.649 485.005 225.101 485.313 224.628C485.719 224.001 495.58 209.143 510.472 211.752C510.878 211.823 511.266 211.974 511.614 212.195C511.962 212.416 512.263 212.704 512.5 213.041C512.736 213.378 512.904 213.759 512.994 214.162C513.084 214.564 513.093 214.98 513.022 215.386C512.951 215.792 512.8 216.18 512.579 216.528C512.358 216.876 512.07 217.177 511.733 217.414C511.395 217.65 511.015 217.818 510.612 217.908C510.21 217.998 509.794 218.007 509.388 217.936C498.629 216.038 490.633 227.949 490.565 228.101C490.273 228.528 489.881 228.876 489.423 229.115C488.965 229.355 488.455 229.478 487.939 229.474Z" fill="#263238"/>
<path d="M534.021 180.782C529.616 192.76 523.974 214.446 530.802 223.137C522.379 230.441 511.436 234.167 500.306 233.523C486.244 233.048 489.107 227.424 493.699 222.443C507.388 220.121 508.794 208.618 508.15 199.028L534.021 180.782Z" fill="#D38A74"/>
<path d="M472.351 226.492C472.351 232.32 476.468 237.03 481.551 237.03C486.633 237.03 490.733 232.32 490.733 226.492C490.733 220.664 486.617 215.954 481.551 215.954C476.485 215.954 472.351 220.681 472.351 226.492Z" fill="#263238"/>
<path opacity="0.4" d="M472.351 226.492C472.351 232.32 476.468 237.03 481.551 237.03C486.633 237.03 490.733 232.32 490.733 226.492C490.733 220.664 486.617 215.954 481.551 215.954C476.485 215.954 472.351 220.681 472.351 226.492Z" fill="#0B5A79"/>
<path d="M473.452 226.492C473.449 228.872 474.152 231.2 475.472 233.181C476.793 235.162 478.671 236.706 480.87 237.619C483.069 238.531 485.489 238.771 487.824 238.307C490.159 237.844 492.304 236.698 493.987 235.015C495.67 233.331 496.816 231.186 497.28 228.851C497.743 226.516 497.504 224.096 496.591 221.898C495.679 219.699 494.134 217.82 492.154 216.5C490.173 215.179 487.845 214.476 485.464 214.48C482.28 214.484 479.227 215.751 476.975 218.003C474.724 220.255 473.457 223.307 473.452 226.492Z" fill="#263238"/>
<path opacity="0.2" d="M523.517 188.219L508.269 198.995C508.472 201.249 508.472 203.517 508.269 205.771C513.351 205.365 521.28 200.164 522.754 194.793C523.393 192.664 523.651 190.438 523.517 188.219Z" fill="black"/>
<path d="M538.918 164.127C534.988 180.002 533.497 189.541 523.823 196.606C520.765 198.983 517.112 200.473 513.265 200.914C509.417 201.356 505.522 200.731 502.005 199.108C498.488 197.485 495.485 194.927 493.324 191.713C491.163 188.499 489.928 184.752 489.752 180.883C488.939 166.042 495.495 142.543 512.488 138.256C529.227 134.038 542.849 148.235 538.918 164.127Z" fill="#D38A74"/>
<path d="M531.633 151.997C525.755 145.542 497.749 155.944 494.581 141.662C491.413 127.38 507.389 124.076 513.658 130.785C517.216 134.597 526.144 127.075 530.109 132.869C536.733 142.543 546.373 137.308 549.152 146.423C551.456 153.962 539.41 160.502 531.633 151.997Z" fill="#263238"/>
<path d="M543.663 153.708C543.663 153.708 549.355 149.879 554.489 158.367C551.182 156.189 547.517 154.612 543.663 153.708Z" fill="#263238"/>
<path d="M544.305 151.505L537.342 148.642C527.583 152.2 527.838 159.163 527.838 165.703C527.858 170.509 525.983 175.129 522.619 178.562L531.684 181.459C531.684 181.459 563.806 167.889 544.305 151.505Z" fill="#263238"/>
<path d="M541.526 183.713C538.516 185.937 534.774 186.936 531.056 186.508C526.177 185.898 525.821 181.222 528.938 177.715C531.717 174.564 537.63 171.074 541.679 173.463C545.728 175.851 545.203 180.968 541.526 183.713Z" fill="#D38A74"/>
<path d="M511.895 164.652C511.657 165.957 510.759 166.923 509.895 166.821C509.031 166.719 508.54 165.55 508.777 164.246C509.014 162.941 509.912 161.976 510.759 162.094C511.606 162.213 512.132 163.348 511.895 164.652Z" fill="#263238"/>
<path d="M496.12 162.941C495.883 164.246 494.985 165.212 494.121 165.093C493.257 164.974 492.766 163.839 493.003 162.535C493.24 161.23 494.138 160.264 495.002 160.383C495.866 160.502 496.408 161.637 496.12 162.941Z" fill="#263238"/>
<path d="M501.663 164.348C501.663 164.348 497.292 171.48 493.328 174.682C495.259 177.139 499.393 176.682 499.393 176.682L501.663 164.348Z" fill="#C07862"/>
<path d="M504.984 183.238C508.047 183.255 510.995 182.075 513.201 179.951C513.234 179.915 513.26 179.872 513.277 179.825C513.294 179.778 513.301 179.729 513.299 179.679C513.296 179.63 513.284 179.581 513.263 179.536C513.242 179.491 513.212 179.451 513.176 179.418C513.139 179.384 513.096 179.359 513.049 179.342C513.003 179.325 512.953 179.318 512.903 179.32C512.854 179.322 512.805 179.334 512.76 179.355C512.716 179.377 512.675 179.406 512.642 179.443C511.416 180.59 509.949 181.447 508.348 181.952C506.747 182.456 505.053 182.595 503.391 182.357C503.287 182.347 503.182 182.376 503.097 182.438C503.013 182.501 502.955 182.593 502.934 182.696C502.924 182.745 502.925 182.796 502.936 182.845C502.948 182.894 502.969 182.94 503 182.98C503.03 183.02 503.069 183.053 503.113 183.077C503.157 183.101 503.206 183.116 503.256 183.12C503.828 183.199 504.406 183.239 504.984 183.238Z" fill="#263238"/>
<path d="M518.433 160.959C518.569 160.955 518.702 160.92 518.823 160.858C519.004 160.76 519.141 160.596 519.204 160.401C519.267 160.205 519.252 159.992 519.162 159.807C518.617 158.718 517.81 157.783 516.813 157.085C515.816 156.386 514.661 155.948 513.452 155.809C513.242 155.794 513.034 155.862 512.873 155.998C512.712 156.134 512.609 156.328 512.588 156.537C512.576 156.637 512.585 156.738 512.614 156.834C512.644 156.93 512.692 157.019 512.758 157.096C512.823 157.172 512.903 157.234 512.994 157.278C513.084 157.322 513.182 157.346 513.283 157.35C514.236 157.475 515.144 157.834 515.925 158.396C516.706 158.958 517.335 159.705 517.755 160.57C517.824 160.688 517.923 160.787 518.042 160.855C518.161 160.924 518.296 160.96 518.433 160.959Z" fill="#263238"/>
<path d="M493.496 157.232C493.623 157.252 493.754 157.242 493.877 157.204C494 157.166 494.113 157.1 494.207 157.012C494.899 156.289 495.748 155.737 496.689 155.399C497.63 155.061 498.636 154.946 499.629 155.063C499.835 155.095 500.044 155.048 500.217 154.931C500.389 154.815 500.512 154.639 500.561 154.437C500.586 154.341 500.591 154.241 500.576 154.143C500.561 154.045 500.527 153.951 500.474 153.867C500.422 153.783 500.353 153.711 500.272 153.654C500.191 153.598 500.099 153.558 500.002 153.539C498.751 153.383 497.482 153.517 496.292 153.932C495.102 154.346 494.023 155.029 493.14 155.927C493.066 155.997 493.007 156.081 492.967 156.174C492.927 156.268 492.906 156.368 492.906 156.47C492.906 156.571 492.927 156.672 492.967 156.765C493.007 156.858 493.066 156.942 493.14 157.012C493.233 157.12 493.357 157.197 493.496 157.232Z" fill="#263238"/>
<path d="M223.063 500.448L213.355 484.743L246.833 456.348L256.524 472.053L223.063 500.448Z" fill="#D38A74"/>
<path d="M219.047 479.304L234.6 491.164C234.856 491.395 235.021 491.71 235.065 492.052C235.108 492.394 235.028 492.74 234.838 493.028L226.163 508.36C225.989 508.724 225.741 509.047 225.435 509.31C225.129 509.572 224.772 509.768 224.386 509.884C224 510 223.594 510.035 223.194 509.986C222.794 509.936 222.409 509.804 222.063 509.597C217.15 505.667 213.778 502.515 207.476 497.738C203.613 494.773 191.516 486.285 186.162 482.168C180.809 478.051 185.332 471.291 187.992 472.392C199.936 477.39 210.271 479.575 216.201 478.644C216.695 478.552 217.203 478.564 217.693 478.678C218.183 478.791 218.644 479.005 219.047 479.304Z" fill="#263238"/>
<path opacity="0.2" d="M256.524 472.07L246.816 456.365L229.569 471.003L241.09 485.167L256.524 472.07Z" fill="black"/>
<path d="M451.207 351.712C451.207 351.712 393.603 361.878 339.388 379.396C301.793 391.544 236.345 461.041 236.345 461.041L252.44 485.59C252.44 485.59 333.407 427.207 349.621 411.807C441.787 400.862 511.928 424.598 516.469 362.776C500.509 358.354 451.207 351.712 451.207 351.712Z" fill="#263238"/>
<path d="M228.604 461.752L253.628 490.385L263.404 482.371L237.77 451.858L228.604 461.752Z" fill="#0B5A79"/>
<path d="M559.69 246.67C562.556 259.051 564.784 271.571 566.365 284.18C567.144 290.534 567.771 296.955 568.059 303.613C568.178 307.001 568.212 310.39 568.059 313.931C567.958 315.744 567.805 317.59 567.5 319.59C567.189 321.891 566.667 324.16 565.941 326.366C565.401 327.925 564.69 329.419 563.824 330.822C563.12 331.911 562.339 332.947 561.486 333.923C559.958 335.653 558.254 337.22 556.403 338.599C553.284 340.899 549.92 342.848 546.373 344.41C540.106 347.108 533.584 349.174 526.906 350.577C514.304 353.289 501.457 354.702 488.566 354.796L487.245 342.529C498.88 339.75 510.361 336.357 521.637 332.364C526.901 330.537 532.002 328.27 536.886 325.587C538.912 324.447 540.804 323.083 542.527 321.521C543.157 320.981 543.725 320.373 544.221 319.708C544.363 319.498 544.488 319.277 544.594 319.047C544.374 319.352 544.34 319.437 544.357 319.285C544.488 318.499 544.579 317.707 544.628 316.913C544.628 315.828 544.713 314.592 544.628 313.304C544.628 310.729 544.442 307.933 544.171 305.087C543.629 299.411 542.815 293.532 541.883 287.636C540.003 275.862 537.716 263.799 535.361 252.058L559.69 246.67Z" fill="#D38A74"/>
<path d="M539.968 224.34C543.357 225.238 558.723 227.559 569.651 265.12L532.717 279.521C532.717 279.521 507.151 215.564 539.968 224.34Z" fill="#0B5A79"/>
<path d="M527.296 232.252C527.299 234.632 526.596 236.959 525.277 238.94C523.957 240.92 522.079 242.465 519.882 243.378C517.684 244.291 515.265 244.531 512.93 244.069C510.596 243.607 508.451 242.463 506.767 240.781C505.083 239.099 503.935 236.956 503.47 234.622C503.004 232.288 503.242 229.869 504.152 227.67C505.062 225.471 506.603 223.591 508.582 222.269C510.56 220.946 512.887 220.24 515.267 220.24C516.845 220.238 518.409 220.547 519.869 221.15C521.328 221.752 522.654 222.637 523.771 223.752C524.889 224.868 525.775 226.193 526.38 227.651C526.984 229.11 527.296 230.673 527.296 232.252Z" fill="#263238"/>
<path d="M514.64 238.758C513.898 238.758 513.18 238.495 512.614 238.015C512.048 237.536 511.67 236.871 511.548 236.139C511.426 235.407 511.568 234.656 511.948 234.018C512.328 233.381 512.921 232.899 513.623 232.659C513.826 232.659 527.279 227.83 528.109 216.936C528.172 216.107 528.561 215.337 529.192 214.796C529.823 214.254 530.643 213.985 531.472 214.048C532.301 214.111 533.071 214.5 533.613 215.131C534.154 215.762 534.423 216.582 534.36 217.411C533.208 232.472 516.368 238.351 515.724 238.606C515.373 238.713 515.007 238.764 514.64 238.758Z" fill="#263238"/>
<path d="M528.396 232.252C528.396 238.063 524.279 242.79 519.196 242.79C514.114 242.79 510.014 238.063 510.014 232.252C510.014 226.441 514.114 221.714 519.196 221.714C524.279 221.714 528.396 226.424 528.396 232.252Z" fill="#263238"/>
<path opacity="0.4" d="M528.396 232.252C528.396 238.063 524.279 242.79 519.196 242.79C514.114 242.79 510.014 238.063 510.014 232.252C510.014 226.441 514.114 221.714 519.196 221.714C524.279 221.714 528.396 226.424 528.396 232.252Z" fill="#0B5A79"/>
<path d="M489.634 341.97L475.301 344.02L482.078 361.369C482.078 361.369 497.732 357.371 497.665 349.51L494.276 344.071C493.781 343.317 493.082 342.719 492.26 342.347C491.438 341.976 490.527 341.845 489.634 341.97Z" fill="#D38A74"/>
<path d="M460.085 352.712L469.047 366.825L482.11 361.369L475.299 344.02L460.085 352.712Z" fill="#D38A74"/>
<path d="M322.446 357.066H502.305C503.398 357.075 504.442 357.514 505.213 358.288C505.983 359.061 506.418 360.108 506.422 361.2H318.363C318.368 360.114 318.798 359.072 319.561 358.299C320.324 357.526 321.36 357.084 322.446 357.066Z" fill="#0B5A79"/>
<path opacity="0.2" d="M322.446 357.066H502.305C503.398 357.075 504.442 357.514 505.213 358.288C505.983 359.061 506.418 360.108 506.422 361.2H318.363C318.368 360.114 318.798 359.072 319.561 358.299C320.324 357.526 321.36 357.084 322.446 357.066Z" fill="white"/>
<path opacity="0.4" d="M449.817 357.066H502.338C503.43 357.075 504.475 357.514 505.245 358.288C506.016 359.061 506.451 360.108 506.455 361.2H445.683C445.688 360.105 446.125 359.056 446.899 358.282C447.673 357.507 448.722 357.07 449.817 357.066Z" fill="black"/>
<path d="M300.758 265.12H426.656C428.734 265.221 430.725 265.984 432.338 267.298C433.951 268.612 435.1 270.408 435.619 272.422L453.137 349.764C453.397 350.629 453.446 351.544 453.281 352.433C453.116 353.321 452.741 354.157 452.187 354.871C451.634 355.585 450.918 356.157 450.099 356.539C449.28 356.921 448.381 357.101 447.479 357.066H321.581C319.5 356.969 317.505 356.207 315.889 354.893C314.273 353.579 313.121 351.781 312.601 349.764L295.1 272.422C294.836 271.557 294.784 270.64 294.948 269.75C295.111 268.86 295.486 268.023 296.04 267.307C296.594 266.592 297.312 266.02 298.133 265.64C298.954 265.259 299.854 265.081 300.758 265.12Z" fill="#0B5A79"/>
<path opacity="0.2" d="M300.758 265.12H426.656C428.734 265.221 430.725 265.984 432.338 267.298C433.951 268.612 435.1 270.408 435.619 272.422L453.137 349.764C453.397 350.629 453.446 351.544 453.281 352.433C453.116 353.321 452.741 354.157 452.187 354.871C451.634 355.585 450.918 356.157 450.099 356.539C449.28 356.921 448.381 357.101 447.479 357.066H321.581C319.5 356.969 317.505 356.207 315.889 354.893C314.273 353.579 313.121 351.781 312.601 349.764L295.1 272.422C294.836 271.557 294.784 270.64 294.948 269.75C295.111 268.86 295.486 268.023 296.04 267.307C296.594 266.592 297.312 266.02 298.133 265.64C298.954 265.259 299.854 265.081 300.758 265.12Z" fill="#24B244"/>
<path opacity="0.4" d="M449.596 353.593L430.672 269.983C430.6 269.622 430.647 269.247 430.807 268.915C430.967 268.583 431.231 268.313 431.558 268.144C431.886 267.976 432.259 267.919 432.622 267.981C432.985 268.044 433.317 268.223 433.569 268.492C434.573 269.617 435.283 270.973 435.636 272.439L453.121 349.764C453.494 351.185 453.35 352.692 452.714 354.016C452.547 354.311 452.296 354.549 451.992 354.699C451.689 354.849 451.347 354.905 451.012 354.86C450.676 354.814 450.362 354.669 450.11 354.443C449.858 354.217 449.679 353.921 449.596 353.593Z" fill="black"/>
<path d="M625.035 499.262H590.219L558.571 399.676C555.624 390.312 549.759 382.137 541.834 376.345C533.908 370.553 524.337 367.448 514.521 367.485H490.09C480.274 367.448 470.703 370.553 462.778 376.345C454.852 382.137 448.987 390.312 446.04 399.676L414.392 499.262H379.627L411.817 397.778C415.153 387.149 421.802 377.865 430.791 371.284C439.781 364.703 450.639 361.169 461.78 361.2H542.73C553.874 361.17 564.737 364.703 573.731 371.284C582.726 377.864 589.381 387.147 592.727 397.778L625.035 499.262Z" fill="#0B5A79"/>
<path opacity="0.4" d="M625.035 499.262H590.219L558.571 399.676C555.624 390.312 549.759 382.137 541.834 376.345C533.908 370.553 524.337 367.448 514.521 367.485H490.09C480.274 367.448 470.703 370.553 462.778 376.345C454.852 382.137 448.987 390.312 446.04 399.676L414.392 499.262H379.627L411.817 397.778C415.153 387.149 421.802 377.865 430.791 371.284C439.781 364.703 450.639 361.169 461.78 361.2H542.73C553.874 361.17 564.737 364.703 573.731 371.284C582.726 377.864 589.381 387.147 592.727 397.778L625.035 499.262Z" fill="black"/>
<path d="M625.034 499.262H618.393L586.812 399.676C583.866 390.312 578.001 382.137 570.075 376.345C562.15 370.553 552.579 367.448 542.763 367.485H490.089C480.273 367.448 470.702 370.553 462.776 376.345C454.851 382.137 448.986 390.312 446.039 399.676L414.391 499.262H407.817L440.008 397.778C443.344 387.149 449.993 377.865 458.982 371.284C467.971 364.703 478.83 361.169 489.97 361.2H542.678C553.822 361.17 564.685 364.703 573.679 371.284C582.674 377.864 589.329 387.147 592.674 397.778L625.034 499.262Z" fill="#0B5A79"/>
</svg>
