<svg width="728" height="543" viewBox="0 0 728 543" fill="none" xmlns="http://www.w3.org/2000/svg">
<path d="M728 476.694H0V477.058H728V476.694Z" fill="#EBEBEB"/>
<path d="M345.072 411.757H63.9325C61.7301 411.753 59.6192 410.875 58.0632 409.317C56.5072 407.758 55.6333 405.645 55.6333 403.443V8.24096C55.6525 6.05117 56.5348 3.95738 58.0888 2.41437C59.6427 0.871355 61.7426 0.00375122 63.9325 0H345.072C347.277 0 349.391 0.875912 350.95 2.43504C352.509 3.99418 353.385 6.10881 353.385 8.31376V403.443C353.385 405.648 352.509 407.763 350.95 409.322C349.391 410.881 347.277 411.757 345.072 411.757ZM63.9325 0.291201C61.8266 0.295058 59.8083 1.13432 58.3206 2.62477C56.8329 4.11522 55.9973 6.13507 55.9973 8.24096V403.443C55.9973 405.549 56.8329 407.569 58.3206 409.059C59.8083 410.55 61.8266 411.389 63.9325 411.393H345.072C347.179 411.389 349.199 410.55 350.689 409.06C352.179 407.57 353.017 405.55 353.021 403.443V8.24096C353.017 6.13374 352.179 4.11392 350.689 2.62388C349.199 1.13385 347.179 0.29505 345.072 0.291201H63.9325Z" fill="#EBEBEB"/>
<path d="M660.019 411.757H378.866C376.662 411.753 374.549 410.876 372.991 409.318C371.433 407.759 370.556 405.647 370.552 403.443V8.24096C370.575 6.04985 371.46 3.95606 373.017 2.41346C374.573 0.870846 376.674 0.00371031 378.866 0H660.019C662.206 0.00757775 664.303 0.876875 665.853 2.41948C667.404 3.96208 668.285 6.05369 668.304 8.24096V403.443C668.304 405.643 667.432 407.753 665.879 409.311C664.326 410.87 662.219 411.749 660.019 411.757ZM378.866 0.291201C376.758 0.29505 374.738 1.13385 373.248 2.62388C371.758 4.11392 370.92 6.13374 370.916 8.24096V403.443C370.92 405.55 371.758 407.57 373.248 409.06C374.738 410.55 376.758 411.389 378.866 411.393H660.019C662.126 411.389 664.146 410.55 665.636 409.06C667.126 407.57 667.965 405.55 667.969 403.443V8.24096C667.965 6.13374 667.126 4.11392 665.636 2.62388C664.146 1.13385 662.126 0.29505 660.019 0.291201H378.866Z" fill="#EBEBEB"/>
<path d="M112.52 490.556H74.6636V490.92H112.52V490.556Z" fill="#EBEBEB"/>
<path d="M276.902 486.61H211.338V486.974H276.902V486.61Z" fill="#EBEBEB"/>
<path d="M202.486 504.082H113.976V504.446H202.486V504.082Z" fill="#EBEBEB"/>
<path d="M653.336 501.636H625.337V502H653.336V501.636Z" fill="#EBEBEB"/>
<path d="M612.364 501.636H531.861V502H612.364V501.636Z" fill="#EBEBEB"/>
<path d="M482.693 495.491H374.264V495.855H482.693V495.491Z" fill="#EBEBEB"/>
<path d="M385.651 319.607H324.426V476.694H385.651V319.607Z" fill="#F0F0F0"/>
<path d="M105.356 476.694H324.426V319.607H105.356L105.356 476.694Z" fill="#F5F5F5"/>
<path d="M118.782 461.392H155.342V429.404H118.782V461.392Z" fill="white"/>
<path d="M118.782 417.668H155.342V385.68H118.782V417.668Z" fill="#EBEBEB"/>
<g style="mix-blend-mode:multiply" opacity="0.7">
<path d="M385.636 339.889H104.7V346.193H385.636V339.889Z" fill="#E6E6E6"/>
</g>
<path d="M389.028 316.564H324.426V342H389.028V316.564Z" fill="#F0F0F0"/>
<path d="M101.949 342H324.412V316.563H101.949V342Z" fill="#F5F5F5"/>
<path d="M362.441 268.545H314.859V316.957H362.441V268.545Z" fill="#F0F0F0"/>
<path d="M149.167 316.942H314.845V268.53H149.167V316.942Z" fill="#F5F5F5"/>
<g style="mix-blend-mode:multiply" opacity="0.7">
<path d="M362.442 275.839H148.687V279.756H362.442V275.839Z" fill="#E6E6E6"/>
</g>
<path d="M365.062 266.171H314.859V277.485H365.062V266.171Z" fill="#F0F0F0"/>
<path d="M146.56 277.484H314.859V266.171H146.56V277.484Z" fill="#F5F5F5"/>
<path d="M418.469 476.694H465.047L465.047 240.997H418.469V476.694Z" fill="#E6E6E6"/>
<path d="M428.442 476.694H418.469V459.979H438.896L428.442 476.694Z" fill="#F0F0F0"/>
<path d="M573.853 476.694H620.431V240.997H573.853V476.694Z" fill="#E6E6E6"/>
<path d="M418.468 473.317H582.545V240.997L418.468 240.997V473.317Z" fill="#F0F0F0"/>
<path d="M426.215 315.02H574.814V251.306L426.215 251.306V315.02Z" fill="#E6E6E6"/>
<path d="M510.27 281.794C510.27 283.726 509.697 285.615 508.624 287.222C507.55 288.829 506.024 290.081 504.239 290.82C502.454 291.56 500.49 291.753 498.594 291.376C496.699 290.999 494.959 290.069 493.592 288.702C492.226 287.336 491.295 285.595 490.918 283.7C490.541 281.805 490.735 279.841 491.474 278.055C492.214 276.27 493.466 274.744 495.073 273.671C496.679 272.597 498.568 272.024 500.5 272.024C501.784 272.023 503.055 272.274 504.241 272.764C505.428 273.254 506.505 273.974 507.413 274.882C508.321 275.789 509.04 276.867 509.53 278.053C510.021 279.239 510.272 280.511 510.27 281.794Z" fill="#FAFAFA"/>
<path d="M572.572 476.694H582.546V459.979H562.118L572.572 476.694Z" fill="#F0F0F0"/>
<path d="M574.8 325.3H426.201V463.023H574.8V325.3Z" fill="#E6E6E6"/>
<path d="M554.285 355.599C559.681 355.599 564.055 351.225 564.055 345.829C564.055 340.433 559.681 336.059 554.285 336.059C548.89 336.059 544.516 340.433 544.516 345.829C544.516 351.225 548.89 355.599 554.285 355.599Z" fill="#FAFAFA"/>
<path d="M604.605 214.775V24.0677L125.523 24.0677V214.775L604.605 214.775Z" fill="#E6E6E6"/>
<path d="M602.493 214.76V24.0531L123.411 24.0531V214.76L602.493 214.76Z" fill="#F0F0F0"/>
<path d="M590.307 36.2544H135.598V202.573H590.307V36.2544Z" fill="white"/>
<path d="M188.61 105.56L172.623 133.268H204.612L188.61 105.56Z" fill="#E6E6E6"/>
<path d="M271.617 106.346H245.496V132.467H271.617V106.346Z" fill="#E6E6E6"/>
<path d="M328.502 102.706L310.928 115.461L317.641 136.121H339.35L346.062 115.461L328.502 102.706Z" fill="#E6E6E6"/>
<path d="M407.68 103.42H389.204L379.958 119.407L389.204 135.408H407.68L416.911 119.407L407.68 103.42Z" fill="#E6E6E6"/>
<path d="M468.38 101.847L453.937 108.807L450.37 124.444L460.358 136.966H476.388L486.391 124.444L482.824 108.807L468.38 101.847Z" fill="#E6E6E6"/>
<path d="M545.388 102.342H531.25L521.248 112.345V126.483L531.25 136.485H545.388L555.376 126.483V112.345L545.388 102.342Z" fill="#E6E6E6"/>
<path d="M364 542.447C519.913 542.447 646.304 535.068 646.304 525.965C646.304 516.863 519.913 509.484 364 509.484C208.088 509.484 81.6965 516.863 81.6965 525.965C81.6965 535.068 208.088 542.447 364 542.447Z" fill="#F5F5F5"/>
<path d="M348.581 108.487H588.312C589.511 108.471 590.7 108.705 591.804 109.174C592.908 109.643 593.902 110.336 594.723 111.209C595.545 112.083 596.176 113.118 596.576 114.248C596.976 115.379 597.137 116.58 597.048 117.776L577.494 432.752C577.305 435.255 576.188 437.597 574.362 439.318C572.535 441.039 570.131 442.016 567.622 442.056H327.877C326.68 442.059 325.496 441.815 324.397 441.341C323.299 440.867 322.309 440.172 321.49 439.3C320.671 438.428 320.04 437.396 319.636 436.27C319.232 435.144 319.063 433.946 319.141 432.752L338.681 117.776C338.876 115.272 340 112.932 341.831 111.213C343.663 109.495 346.07 108.522 348.581 108.487Z" fill="#0B5A79"/>
<path opacity="0.4" d="M348.581 108.487H588.312C589.511 108.471 590.7 108.705 591.804 109.174C592.908 109.643 593.902 110.336 594.723 111.209C595.545 112.083 596.176 113.118 596.576 114.248C596.976 115.379 597.137 116.58 597.048 117.776L577.494 432.752C577.305 435.255 576.188 437.597 574.362 439.318C572.535 441.039 570.131 442.016 567.622 442.056H327.877C326.68 442.059 325.496 441.815 324.397 441.341C323.299 440.867 322.309 440.172 321.49 439.3C320.671 438.428 320.04 437.396 319.636 436.27C319.232 435.144 319.063 433.946 319.141 432.752L338.681 117.776C338.876 115.272 340 112.932 341.831 111.213C343.663 109.495 346.07 108.522 348.581 108.487Z" fill="black"/>
<path d="M343.078 108.487H582.808C584.007 108.471 585.197 108.705 586.3 109.174C587.404 109.643 588.398 110.336 589.22 111.209C590.041 112.083 590.672 113.118 591.072 114.248C591.473 115.379 591.633 116.58 591.544 117.776L571.99 432.752C571.801 435.257 570.682 437.601 568.853 439.323C567.023 441.045 564.616 442.02 562.104 442.056H322.374C321.177 442.059 319.993 441.815 318.894 441.341C317.795 440.867 316.806 440.172 315.987 439.3C315.167 438.428 314.536 437.396 314.132 436.27C313.728 435.144 313.56 433.946 313.638 432.752L333.177 117.776C333.37 115.271 334.492 112.929 336.325 111.21C338.157 109.49 340.566 108.519 343.078 108.487Z" fill="#0B5A79"/>
<path opacity="0.4" d="M326.64 425.05L559.993 427.846L578.921 122.785H345.393L326.64 425.05Z" fill="black"/>
<path d="M319.826 421.963H556.193C569.21 302.702 573.214 238.318 574.99 119.115H338.623C336.847 238.318 332.857 302.702 319.826 421.963Z" fill="white"/>
<path opacity="0.3" d="M546.713 202.02H506.018C505.608 202.025 505.202 201.943 504.825 201.78C504.449 201.617 504.111 201.376 503.834 201.074C503.554 200.775 503.337 200.422 503.196 200.036C503.056 199.651 502.996 199.241 503.019 198.831L505.538 158.151C505.586 157.387 505.922 156.67 506.479 156.146C507.036 155.621 507.772 155.328 508.537 155.326H549.305C549.715 155.327 550.12 155.412 550.496 155.575C550.872 155.738 551.21 155.977 551.491 156.275C551.772 156.573 551.989 156.926 552.128 157.311C552.268 157.696 552.328 158.106 552.304 158.515L549.771 199.21C549.758 199.596 549.668 199.976 549.507 200.327C549.345 200.679 549.116 200.994 548.831 201.256C548.547 201.517 548.213 201.72 547.849 201.851C547.486 201.982 547.1 202.04 546.713 202.02ZM509.221 196.021H543.889L546 161.339H511.362L509.221 196.021Z" fill="#0B5A79"/>
<path opacity="0.3" d="M542.857 264.002H502.176C501.767 264.001 501.362 263.916 500.987 263.753C500.611 263.591 500.273 263.353 499.992 263.055C499.709 262.758 499.491 262.405 499.351 262.019C499.21 261.634 499.151 261.223 499.177 260.813L501.696 220.118C501.744 219.356 502.081 218.641 502.638 218.119C503.196 217.596 503.931 217.306 504.695 217.308H545.39C545.8 217.303 546.207 217.385 546.583 217.548C546.96 217.711 547.297 217.952 547.574 218.254C547.855 218.553 548.072 218.906 548.212 219.292C548.352 219.677 548.413 220.087 548.39 220.497L545.856 261.177C545.811 261.942 545.476 262.661 544.918 263.186C544.36 263.711 543.623 264.003 542.857 264.002ZM505.365 257.989H540.032L542.187 223.307H507.52L505.365 257.989Z" fill="#0B5A79"/>
<path opacity="0.3" d="M539.013 325.969H498.332C497.92 325.971 497.513 325.888 497.134 325.725C496.756 325.562 496.416 325.323 496.134 325.023C495.85 324.727 495.632 324.374 495.494 323.987C495.356 323.601 495.301 323.19 495.333 322.781L497.852 282.1C497.9 281.336 498.236 280.62 498.793 280.095C499.35 279.571 500.086 279.278 500.851 279.275H541.546C541.956 279.277 542.36 279.361 542.736 279.524C543.111 279.687 543.45 279.924 543.73 280.222C544.009 280.522 544.225 280.875 544.365 281.261C544.505 281.646 544.566 282.055 544.546 282.464L542.012 323.232C541.947 323.981 541.602 324.678 541.046 325.185C540.491 325.692 539.765 325.972 539.013 325.969ZM501.521 319.971H536.188L538.343 285.289H503.676L501.521 319.971Z" fill="#0B5A79"/>
<path opacity="0.3" d="M535.168 387.951H494.487C494.076 387.949 493.669 387.865 493.291 387.702C492.913 387.539 492.572 387.302 492.288 387.005C492.005 386.709 491.786 386.356 491.648 385.969C491.51 385.583 491.456 385.172 491.488 384.763L494.007 344.067C494.058 343.306 494.396 342.593 494.953 342.072C495.51 341.55 496.243 341.259 497.006 341.257H537.701C538.111 341.252 538.518 341.334 538.894 341.497C539.271 341.66 539.608 341.901 539.885 342.204C540.166 342.503 540.383 342.856 540.523 343.241C540.663 343.627 540.723 344.036 540.7 344.446L538.167 385.127C538.119 385.89 537.782 386.607 537.225 387.131C536.668 387.656 535.933 387.949 535.168 387.951ZM497.676 381.938H532.343L534.498 347.256H499.831L497.676 381.938Z" fill="#0B5A79"/>
<path opacity="0.3" d="M378.387 173.351H470.537C471.909 173.33 473.223 172.797 474.222 171.857C475.221 170.917 475.834 169.638 475.939 168.27C475.987 167.616 475.899 166.959 475.68 166.341C475.462 165.723 475.117 165.157 474.668 164.679C474.219 164.202 473.675 163.822 473.072 163.566C472.469 163.309 471.819 163.181 471.163 163.188H379.027C377.654 163.203 376.336 163.734 375.335 164.675C374.334 165.616 373.724 166.9 373.625 168.27C373.577 168.923 373.665 169.578 373.883 170.195C374.1 170.812 374.444 171.377 374.891 171.855C375.339 172.332 375.881 172.712 376.482 172.97C377.084 173.227 377.732 173.357 378.387 173.351Z" fill="#0B5A79"/>
<path opacity="0.3" d="M394.576 194.172H469.196C470.568 194.151 471.882 193.618 472.881 192.678C473.881 191.738 474.493 190.459 474.598 189.091C474.648 188.437 474.562 187.78 474.345 187.161C474.128 186.542 473.785 185.975 473.338 185.496C472.89 185.017 472.347 184.636 471.745 184.378C471.142 184.119 470.492 183.989 469.837 183.995H395.246C393.872 184.016 392.555 184.551 391.556 185.494C390.556 186.437 389.946 187.72 389.844 189.091C389.796 189.741 389.883 190.394 390.099 191.009C390.315 191.624 390.656 192.188 391.1 192.665C391.544 193.142 392.082 193.522 392.681 193.782C393.279 194.041 393.924 194.174 394.576 194.172Z" fill="#0B5A79"/>
<path opacity="0.3" d="M373.887 245.977H466.037C466.692 245.971 467.34 246.101 467.942 246.358C468.543 246.616 469.085 246.995 469.533 247.473C469.98 247.951 470.323 248.516 470.541 249.133C470.759 249.75 470.847 250.405 470.798 251.058C470.693 252.426 470.081 253.705 469.082 254.645C468.083 255.585 466.768 256.118 465.397 256.14H373.246C372.592 256.145 371.944 256.015 371.342 255.758C370.74 255.5 370.199 255.121 369.751 254.643C369.304 254.166 368.96 253.6 368.742 252.983C368.525 252.366 368.437 251.711 368.485 251.058C368.59 249.69 369.203 248.411 370.202 247.471C371.201 246.531 372.515 245.998 373.887 245.977Z" fill="#0B5A79"/>
<path opacity="0.3" d="M392.699 225.156H467.377C468.032 225.148 468.682 225.276 469.286 225.533C469.889 225.79 470.433 226.169 470.882 226.647C471.331 227.124 471.675 227.69 471.894 228.308C472.113 228.927 472.201 229.583 472.152 230.237C472.051 231.608 471.44 232.891 470.441 233.834C469.441 234.777 468.125 235.311 466.751 235.333H392.072C391.416 235.341 390.764 235.212 390.16 234.955C389.555 234.697 389.011 234.317 388.562 233.837C388.113 233.358 387.768 232.79 387.55 232.17C387.333 231.551 387.246 230.892 387.297 230.237C387.402 228.869 388.014 227.59 389.013 226.65C390.013 225.71 391.327 225.177 392.699 225.156Z" fill="#0B5A79"/>
<path opacity="0.3" d="M370.697 297.301H462.847C464.219 297.279 465.533 296.746 466.533 295.806C467.532 294.866 468.144 293.587 468.249 292.219C468.298 291.565 468.21 290.909 467.991 290.29C467.772 289.672 467.427 289.107 466.978 288.629C466.529 288.151 465.986 287.772 465.382 287.515C464.779 287.258 464.129 287.13 463.473 287.138H371.28C369.908 287.159 368.594 287.692 367.594 288.632C366.595 289.572 365.983 290.851 365.878 292.219C365.829 292.877 365.918 293.537 366.139 294.158C366.361 294.78 366.71 295.348 367.163 295.826C367.617 296.304 368.166 296.683 368.774 296.937C369.383 297.191 370.038 297.315 370.697 297.301Z" fill="#0B5A79"/>
<path opacity="0.3" d="M424.482 318.121H461.552C462.923 318.1 464.238 317.567 465.237 316.627C466.236 315.687 466.848 314.408 466.953 313.04C467.002 312.385 466.914 311.728 466.695 311.109C466.477 310.49 466.132 309.924 465.683 309.445C465.234 308.966 464.691 308.585 464.088 308.327C463.484 308.069 462.834 307.938 462.178 307.944H425.152C423.779 307.969 422.464 308.505 421.465 309.447C420.466 310.39 419.855 311.671 419.75 313.04C419.702 313.69 419.789 314.343 420.005 314.958C420.221 315.573 420.562 316.137 421.006 316.614C421.45 317.091 421.988 317.472 422.587 317.731C423.185 317.99 423.83 318.123 424.482 318.121Z" fill="#0B5A79"/>
<path opacity="0.3" d="M386.933 318.121H406.487C407.859 318.1 409.173 317.567 410.172 316.627C411.172 315.687 411.784 314.408 411.889 313.04C411.937 312.385 411.849 311.728 411.631 311.109C411.412 310.49 411.067 309.924 410.619 309.445C410.17 308.966 409.626 308.585 409.023 308.327C408.42 308.069 407.769 307.938 407.113 307.944H387.559C386.186 307.969 384.872 308.505 383.873 309.447C382.874 310.39 382.262 311.671 382.157 313.04C382.109 313.694 382.197 314.351 382.415 314.969C382.634 315.587 382.979 316.153 383.428 316.63C383.877 317.108 384.421 317.488 385.024 317.744C385.627 318.001 386.277 318.129 386.933 318.121Z" fill="#0B5A79"/>
<path opacity="0.3" d="M366.914 359.283H459.064C460.436 359.261 461.75 358.728 462.749 357.788C463.748 356.848 464.361 355.569 464.466 354.201C464.514 353.547 464.426 352.889 464.207 352.27C463.989 351.652 463.644 351.085 463.195 350.606C462.747 350.127 462.203 349.746 461.6 349.488C460.997 349.23 460.346 349.099 459.69 349.105H367.481C366.107 349.127 364.791 349.662 363.792 350.605C362.792 351.548 362.181 352.831 362.08 354.201C362.031 354.86 362.12 355.522 362.342 356.144C362.565 356.766 362.915 357.335 363.37 357.813C363.826 358.292 364.376 358.67 364.986 358.923C365.597 359.176 366.253 359.299 366.914 359.283Z" fill="#0B5A79"/>
<path opacity="0.3" d="M383.089 380.103H457.709C459.082 380.078 460.397 379.542 461.396 378.6C462.395 377.658 463.006 376.377 463.111 375.007C463.16 374.354 463.072 373.697 462.853 373.079C462.634 372.461 462.289 371.895 461.84 371.417C461.391 370.939 460.848 370.56 460.244 370.303C459.641 370.047 458.991 369.918 458.335 369.926H383.715C382.344 369.947 381.029 370.48 380.03 371.42C379.031 372.36 378.419 373.64 378.314 375.007C378.265 375.662 378.353 376.319 378.572 376.938C378.791 377.557 379.135 378.124 379.584 378.603C380.033 379.082 380.576 379.462 381.179 379.721C381.783 379.979 382.433 380.109 383.089 380.103Z" fill="#0B5A79"/>
<path d="M524.32 190.882C523.716 190.886 523.126 190.703 522.631 190.357L506.95 179.656C506.351 179.183 505.955 178.5 505.84 177.745C505.725 176.991 505.9 176.221 506.331 175.591C506.761 174.961 507.415 174.518 508.159 174.351C508.904 174.183 509.684 174.305 510.343 174.691L523.738 183.849C528.63 177.952 542.578 162.009 554.183 156.782C554.543 156.621 554.932 156.533 555.326 156.523C555.721 156.512 556.113 156.58 556.482 156.721C556.85 156.862 557.187 157.075 557.473 157.346C557.76 157.618 557.99 157.943 558.15 158.304C558.311 158.664 558.399 159.052 558.41 159.447C558.42 159.841 558.353 160.234 558.211 160.602C558.07 160.971 557.858 161.308 557.586 161.594C557.315 161.881 556.989 162.111 556.629 162.271C543.962 167.906 526.854 189.527 526.693 189.746C526.409 190.101 526.048 190.388 525.637 190.585C525.226 190.782 524.776 190.883 524.32 190.882Z" fill="#24B244"/>
<path d="M517.027 251.655C516.247 251.657 515.497 251.36 514.93 250.825L501.287 237.721C500.708 237.167 500.373 236.405 500.355 235.604C500.337 234.803 500.639 234.027 501.193 233.448C501.747 232.869 502.508 232.533 503.31 232.515C504.111 232.498 504.887 232.799 505.466 233.353L517.114 244.55C522.865 239.41 538.954 225.724 551.126 222.404C551.509 222.3 551.908 222.272 552.301 222.322C552.694 222.372 553.074 222.499 553.418 222.696C553.762 222.893 554.064 223.155 554.306 223.469C554.549 223.782 554.728 224.14 554.832 224.523C554.936 224.905 554.964 225.304 554.914 225.697C554.864 226.09 554.737 226.47 554.54 226.814C554.343 227.158 554.081 227.46 553.767 227.703C553.454 227.945 553.096 228.124 552.713 228.228C539.435 231.853 519.327 250.694 519.123 250.883C518.842 251.144 518.512 251.346 518.152 251.478C517.792 251.611 517.41 251.671 517.027 251.655Z" fill="#24B244"/>
<path opacity="0.4" d="M491.503 126.279H495.871C497.041 126.29 498.202 126.071 499.288 125.634C500.373 125.197 501.362 124.55 502.197 123.731C503.033 122.912 503.699 121.936 504.157 120.859C504.616 119.782 504.858 118.626 504.869 117.456V109.331C504.869 109.213 504.846 109.096 504.8 108.988C504.754 108.879 504.688 108.78 504.604 108.698C504.52 108.615 504.42 108.55 504.311 108.506C504.201 108.462 504.084 108.441 503.966 108.443H491.619C491.354 108.447 491.101 108.554 490.913 108.741C490.726 108.929 490.619 109.182 490.615 109.448L490.673 125.391C490.673 125.617 490.758 125.834 490.912 125.999C491.066 126.164 491.278 126.264 491.503 126.279Z" fill="black"/>
<path d="M424.498 93.7518H498.841C499.903 93.7215 500.959 93.9273 501.931 94.3544C502.904 94.7815 503.77 95.4192 504.467 96.2215C505.163 97.0239 505.673 97.9708 505.959 98.994C506.245 100.017 506.3 101.091 506.121 102.138L503.893 118.693C503.532 120.981 502.382 123.071 500.644 124.602C498.905 126.134 496.687 127.01 494.371 127.08H419.999C418.937 127.11 417.881 126.904 416.908 126.477C415.935 126.05 415.07 125.412 414.373 124.61C413.677 123.808 413.167 122.861 412.881 121.837C412.595 120.814 412.539 119.74 412.719 118.693L414.961 102.138C415.323 99.8478 416.475 97.7559 418.216 96.2245C419.958 94.6931 422.18 93.8184 424.498 93.7518Z" fill="#0B5A79"/>
<path opacity="0.6" d="M424.498 93.7518H498.841C499.903 93.7215 500.959 93.9273 501.931 94.3544C502.904 94.7815 503.77 95.4192 504.467 96.2215C505.163 97.0239 505.673 97.9708 505.959 98.994C506.245 100.017 506.3 101.091 506.121 102.138L503.893 118.693C503.532 120.981 502.382 123.071 500.644 124.602C498.905 126.134 496.687 127.01 494.371 127.08H419.999C418.937 127.11 417.881 126.904 416.908 126.477C415.935 126.05 415.07 125.412 414.373 124.61C413.677 123.808 413.167 122.861 412.881 121.837C412.595 120.814 412.539 119.74 412.719 118.693L414.961 102.138C415.323 99.8478 416.475 97.7559 418.216 96.2245C419.958 94.6931 422.18 93.8184 424.498 93.7518Z" fill="#24B244"/>
<path opacity="0.5" d="M496.918 101.76H463.43C463.119 101.785 462.807 101.745 462.512 101.644C462.217 101.542 461.947 101.38 461.718 101.169C461.489 100.958 461.306 100.701 461.181 100.416C461.056 100.13 460.992 99.822 460.992 99.5103C460.992 99.1987 461.056 98.8904 461.181 98.605C461.306 98.3195 461.489 98.0631 461.718 97.8517C461.947 97.6404 462.217 97.4788 462.512 97.3771C462.807 97.2754 463.119 97.2358 463.43 97.2608H496.918C497.483 97.3063 498.01 97.5631 498.395 97.9799C498.78 98.3968 498.993 98.9432 498.993 99.5103C498.993 100.078 498.78 100.624 498.395 101.041C498.01 101.458 497.483 101.714 496.918 101.76Z" fill="white"/>
<path opacity="0.5" d="M452.293 101.76H448.77C448.459 101.785 448.147 101.745 447.852 101.644C447.558 101.542 447.287 101.38 447.058 101.169C446.829 100.958 446.646 100.701 446.521 100.416C446.396 100.13 446.332 99.822 446.332 99.5103C446.332 99.1987 446.396 98.8904 446.521 98.605C446.646 98.3195 446.829 98.0631 447.058 97.8517C447.287 97.6404 447.558 97.4788 447.852 97.3771C448.147 97.2754 448.459 97.2358 448.77 97.2608H452.293C452.604 97.2358 452.916 97.2754 453.211 97.3771C453.505 97.4788 453.776 97.6404 454.005 97.8517C454.234 98.0631 454.417 98.3195 454.542 98.605C454.667 98.8904 454.731 99.1987 454.731 99.5103C454.731 99.822 454.667 100.13 454.542 100.416C454.417 100.701 454.234 100.958 454.005 101.169C453.776 101.38 453.505 101.542 453.211 101.644C452.916 101.745 452.604 101.785 452.293 101.76Z" fill="white"/>
<path d="M246.733 424.642L261.104 427.394L295.072 267.642L273.975 263.609L246.733 424.642Z" fill="#0B5A79"/>
<path d="M297.24 156.724L314.45 151.06L315.644 144.814L299.614 144.319L297.24 156.724Z" fill="#263238"/>
<path d="M296.804 153.084L316.402 146.706L296.265 261.381L275.168 257.362L296.804 153.084Z" fill="#0B5A79"/>
<path d="M276.379 263.795L295.713 267.544L296.922 261.308L277.588 257.56L276.379 263.795Z" fill="#263238"/>
<path d="M249.324 443.556C249.134 444.502 249.527 445.376 250.197 445.507C250.867 445.638 251.566 444.968 251.741 444.051C251.915 443.133 251.522 442.231 250.852 442.1C250.183 441.969 249.498 442.624 249.324 443.556Z" fill="#0B5A79"/>
<path d="M248.335 443.672L252.615 444.488L261.104 427.394L246.733 424.642L248.335 443.672Z" fill="#263238"/>
<path d="M274.222 228.33C273.918 228.328 273.619 228.25 273.353 228.103C273.086 227.957 272.861 227.745 272.698 227.489C272.534 227.233 272.437 226.94 272.416 226.636C272.395 226.333 272.45 226.029 272.577 225.753C281.604 206.402 288.927 165.984 289.918 156.374C290.059 154.98 290.571 153.65 291.401 152.521C292.23 151.391 293.347 150.505 294.635 149.953L299.396 147.9C299.614 147.805 299.849 147.753 300.087 147.748C300.325 147.743 300.561 147.785 300.783 147.872C301.005 147.958 301.207 148.088 301.379 148.252C301.551 148.417 301.688 148.614 301.784 148.832C301.88 149.05 301.931 149.285 301.936 149.523C301.941 149.761 301.899 149.997 301.813 150.219C301.726 150.441 301.597 150.643 301.432 150.815C301.267 150.987 301.07 151.124 300.852 151.22L296.091 153.273C295.395 153.574 294.793 154.056 294.345 154.667C293.897 155.279 293.62 155.999 293.543 156.753C292.509 166.843 285.244 207.247 275.896 227.281C275.748 227.599 275.511 227.867 275.214 228.053C274.917 228.239 274.572 228.335 274.222 228.33Z" fill="#263238"/>
<path d="M207.144 151.118C203.519 157.335 199.864 163.931 196.413 170.396C194.71 173.657 193.05 176.918 191.463 180.194C189.876 183.47 188.391 186.776 187.095 190.066L186.847 190.663C186.795 190.758 186.761 190.862 186.745 190.969C186.663 191.45 186.629 191.937 186.644 192.425C186.707 193.868 186.911 195.302 187.255 196.706C188.088 200.058 189.158 203.347 190.458 206.548C191.754 209.897 193.239 213.26 194.826 216.638C196.413 220.016 198.029 223.394 199.617 226.685L192.701 231.402C187.539 225.405 182.952 218.936 179 212.081C176.899 208.478 175.121 204.697 173.685 200.782C172.887 198.552 172.302 196.251 171.938 193.91C171.742 192.497 171.684 191.068 171.763 189.644C171.822 188.802 171.939 187.965 172.113 187.14C172.2 186.717 172.346 186.237 172.477 185.786L172.71 185.043C175.071 177.455 177.991 170.053 181.446 162.897C184.831 155.801 188.618 148.903 192.788 142.237L207.144 151.118Z" fill="#CB8A76"/>
<path d="M198.525 224.588L205.033 229.655L195.104 237.867C195.104 237.867 190.575 233.499 191.274 228.126L198.525 224.588Z" fill="#CB8A76"/>
<path d="M207.682 237.051L201.057 245.569L195.088 237.867L205.032 229.655L207.682 237.051Z" fill="#CB8A76"/>
<path d="M244.607 90.432C244.797 91.3056 245.408 91.888 245.976 91.888C246.544 91.888 246.879 90.9562 246.704 90.0826C246.529 89.209 245.903 88.6266 245.335 88.6994C244.767 88.7722 244.491 89.5439 244.607 90.432Z" fill="#263238"/>
<path d="M245.379 91.9463C246.982 94.426 248.917 96.6745 251.13 98.6293C250.613 99.1828 249.982 99.6169 249.281 99.901C248.579 100.185 247.824 100.313 247.068 100.275L245.379 91.9463Z" fill="#ED847E"/>
<path d="M240.443 86.1951C240.313 86.1904 240.188 86.1387 240.093 86.0495C240.043 86.0018 240.002 85.9443 239.975 85.8805C239.947 85.8166 239.933 85.7478 239.933 85.6782C239.933 85.6086 239.947 85.5398 239.975 85.476C240.002 85.4121 240.043 85.3546 240.093 85.3069C240.642 84.6728 241.338 84.1822 242.119 83.8778C242.901 83.5733 243.745 83.4641 244.578 83.5597C244.646 83.5712 244.711 83.5959 244.769 83.6325C244.827 83.6691 244.878 83.7168 244.918 83.7729C244.958 83.829 244.986 83.8924 245.001 83.9595C245.017 84.0266 245.019 84.0961 245.007 84.164C244.996 84.2318 244.971 84.2968 244.935 84.3551C244.898 84.4134 244.85 84.464 244.794 84.5039C244.738 84.5438 244.675 84.5722 244.608 84.5876C244.541 84.6029 244.471 84.605 244.403 84.5935C243.74 84.5357 243.073 84.6378 242.457 84.8911C241.841 85.1444 241.295 85.5417 240.865 86.0495C240.81 86.1034 240.743 86.1443 240.67 86.1695C240.597 86.1947 240.52 86.2034 240.443 86.1951Z" fill="#263238"/>
<path d="M219.55 102.823C221.151 110.991 222.753 125.944 217.045 131.389C217.045 131.389 219.273 139.659 234.43 139.659C251.101 139.659 242.409 131.389 242.409 131.389C233.309 129.205 233.542 122.464 235.129 116.116L219.55 102.823Z" fill="#CB8A76"/>
<path d="M213.812 132.001C212.604 129.089 215.268 120.353 217.962 119.523C221.005 118.591 232.522 119.115 238.346 121.518C242.437 125.653 243.616 134.229 243.616 134.229L213.812 132.001Z" fill="#263238"/>
<path d="M166.201 513.269C166.648 513.43 167.124 513.5 167.599 513.475C168.074 513.45 168.539 513.33 168.967 513.123C169.136 512.975 169.253 512.776 169.301 512.555C169.348 512.335 169.323 512.105 169.229 511.9C169.178 511.728 169.091 511.568 168.973 511.433C168.855 511.297 168.709 511.188 168.545 511.114C167.089 510.401 163.58 511.813 163.434 511.871C163.387 511.889 163.346 511.921 163.318 511.963C163.289 512.004 163.274 512.054 163.274 512.104C163.273 512.155 163.287 512.205 163.312 512.248C163.338 512.292 163.375 512.328 163.42 512.352C164.31 512.76 165.242 513.068 166.201 513.269ZM168.006 511.493L168.327 511.595C168.421 511.637 168.505 511.699 168.573 511.777C168.641 511.855 168.691 511.947 168.72 512.046C168.865 512.526 168.72 512.672 168.632 512.716C168.035 513.225 165.808 512.716 164.264 512.133C165.448 511.642 166.727 511.423 168.006 511.493Z" fill="#0B5A79"/>
<path d="M163.478 512.381H163.609C164.876 512.017 167.57 510.095 167.599 508.828C167.603 508.631 167.538 508.439 167.416 508.285C167.294 508.131 167.122 508.024 166.929 507.984C166.737 507.915 166.533 507.887 166.33 507.902C166.127 507.917 165.929 507.975 165.75 508.071C164.294 508.828 163.318 511.93 163.289 512.061C163.264 512.1 163.251 512.145 163.251 512.192C163.251 512.238 163.264 512.283 163.289 512.323L163.478 512.381ZM166.638 508.435H166.754C167.075 508.552 167.075 508.712 167.075 508.77C167.075 509.527 165.269 511.027 163.973 511.682C164.317 510.454 165.022 509.358 165.997 508.537C166.193 508.432 166.419 508.396 166.638 508.435Z" fill="#0B5A79"/>
<path d="M246.704 515.147C248.16 515.147 249.528 514.943 249.98 514.303C250.102 514.136 250.167 513.934 250.167 513.728C250.167 513.521 250.102 513.319 249.98 513.152C249.889 512.998 249.767 512.863 249.622 512.758C249.476 512.653 249.311 512.579 249.135 512.541C247.286 512.031 243.384 514.244 243.224 514.346C243.176 514.373 243.137 514.414 243.114 514.464C243.09 514.513 243.083 514.569 243.093 514.623C243.101 514.674 243.126 514.721 243.162 514.758C243.199 514.794 243.246 514.818 243.297 514.827C244.421 515.035 245.561 515.142 246.704 515.147ZM248.48 512.978C248.653 512.979 248.824 513.003 248.99 513.051C249.097 513.068 249.198 513.111 249.287 513.174C249.375 513.237 249.448 513.319 249.499 513.415C249.689 513.735 249.63 513.91 249.499 513.997C248.975 514.725 246.165 514.739 244.083 514.448C245.437 513.672 246.932 513.172 248.48 512.978Z" fill="#0B5A79"/>
<path d="M243.34 514.842H243.442C244.796 514.245 247.46 511.828 247.257 510.561C247.257 510.27 246.995 509.906 246.267 509.833C246.006 509.801 245.741 509.825 245.49 509.903C245.239 509.981 245.008 510.111 244.811 510.284C243.355 511.449 243.092 514.448 243.078 514.579C243.07 514.624 243.076 514.67 243.094 514.711C243.112 514.752 243.142 514.788 243.18 514.812C243.227 514.842 243.285 514.853 243.34 514.842ZM246.063 510.313H246.223C246.689 510.313 246.718 510.546 246.732 510.605C246.863 511.362 245.043 513.254 243.675 514.084C243.795 512.816 244.303 511.617 245.131 510.648C245.393 510.431 245.722 510.313 246.063 510.313Z" fill="#0B5A79"/>
<path d="M231.08 514.579H242.233L243.34 488.75H232.187L231.08 514.579Z" fill="#CB8A76"/>
<path d="M150.592 509.411L161.789 511.769L169.695 487.716L158.484 485.357L150.592 509.411Z" fill="#CB8A76"/>
<path d="M163.071 510.677L150.826 508.027C150.609 507.98 150.384 508.007 150.185 508.105C149.987 508.203 149.828 508.366 149.734 508.566L145.482 517.797C145.381 518.023 145.332 518.268 145.339 518.515C145.346 518.762 145.408 519.004 145.522 519.224C145.635 519.443 145.796 519.635 145.993 519.783C146.191 519.932 146.419 520.035 146.661 520.083C150.957 520.927 153.082 521.131 158.47 522.296C161.775 523.009 169.259 524.829 173.83 525.82C178.402 526.81 179.989 522.412 178.198 521.597C170.205 517.943 166.856 514.725 164.701 511.725C164.304 511.189 163.724 510.816 163.071 510.677Z" fill="#263238"/>
<path d="M242.159 513.284H230.045C229.825 513.285 229.612 513.36 229.44 513.497C229.268 513.635 229.148 513.826 229.099 514.041L226.9 523.956C226.842 524.195 226.839 524.445 226.893 524.686C226.947 524.926 227.056 525.151 227.211 525.342C227.366 525.534 227.563 525.687 227.787 525.79C228.011 525.893 228.255 525.943 228.502 525.936C232.87 525.863 239.247 525.616 244.765 525.616C251.215 525.616 248.711 525.965 256.282 525.965C260.869 525.965 262.106 521.335 260.213 520.913C251.477 519.006 252.453 518.802 244.911 514.157C244.097 513.607 243.141 513.303 242.159 513.284Z" fill="#263238"/>
<path d="M197.068 133.952C186.614 136.34 178.009 163.072 178.009 163.072L198.99 179.088C204.425 173.296 208.263 166.192 210.128 158.471C213.725 144.391 207.755 131.448 197.068 133.952Z" fill="#263238"/>
<path opacity="0.2" d="M206.036 153.535C200.357 159.141 198.508 169.376 198.057 178.287L198.989 179.001C204.43 173.213 208.269 166.107 210.127 158.384C210.346 157.554 210.52 156.709 210.68 155.894L206.036 153.535Z" fill="black"/>
<path d="M259.561 134.476C259.561 134.476 271.427 147.886 260.216 230.878H200.52C200.112 221.72 205.863 177.006 197.025 133.908C203.623 132.638 210.295 131.796 217.002 131.389C225.449 130.894 233.918 130.894 242.365 131.389C248.169 131.969 253.918 133.001 259.561 134.476Z" fill="#263238"/>
<path opacity="0.2" d="M243.339 488.75L242.771 502.072H231.604L232.172 488.75H243.339Z" fill="black"/>
<path opacity="0.2" d="M158.484 485.357L169.695 487.716L165.604 500.121L154.407 497.763L158.484 485.357Z" fill="black"/>
<path d="M214.891 94.5379C217.803 105.225 218.88 111.631 225.476 116.072C235.406 122.77 247.767 115.097 248.146 103.754C248.495 93.5624 243.778 77.7939 232.275 75.639C229.749 75.1501 227.139 75.3159 224.694 76.1206C222.249 76.9253 220.051 78.3422 218.308 80.2365C216.566 82.1307 215.337 84.4393 214.739 86.9425C214.141 89.4458 214.193 92.0605 214.891 94.5379Z" fill="#CB8A76"/>
<path d="M225.547 114.835H225.401C223.677 114.844 221.976 114.442 220.439 113.662C218.902 112.882 217.573 111.747 216.563 110.35C213.214 105.676 208.511 97.5664 207.973 88.2043C212.224 83.7198 228.196 80.7642 235.316 82.3803C241.242 83.7344 240.383 100.609 234.778 109.739C233.797 111.301 232.436 112.589 230.821 113.48C229.206 114.371 227.391 114.838 225.547 114.835Z" fill="#CB8A76"/>
<path opacity="0.8" d="M225.547 114.835H225.401C223.677 114.844 221.976 114.442 220.439 113.662C218.902 112.882 217.573 111.747 216.563 110.35C213.214 105.676 208.511 97.5664 207.973 88.2043C212.224 83.7198 228.196 80.7642 235.316 82.3803C241.242 83.7344 240.383 100.609 234.778 109.739C233.797 111.301 232.436 112.589 230.821 113.48C229.206 114.371 227.391 114.838 225.547 114.835Z" fill="#263238"/>
<path d="M214.452 92.0045C212.544 91.9517 210.694 91.3323 209.138 90.2253C207.583 89.1182 206.391 87.5734 205.716 85.7874C204.449 82.0018 205.789 74.0084 213.404 73.7754C221.019 73.5424 221.805 69.2036 219.461 68.3154C224.44 68.6794 222.868 72.1592 222.868 72.1592C224.193 72.1592 225.445 68.592 233.06 68.8832C240.675 69.1744 244.388 67.5437 243.412 65.8402C247.008 66.5682 246.004 70.9362 242.961 72.1156C242.961 72.1156 250.168 77.5756 251.871 74.5762C253.08 76.7602 250.692 79.381 241.592 78.1871C245.217 83.2685 236.627 82.1328 232.972 84.4333C229.318 86.7338 219.475 92.3685 214.452 92.0045Z" fill="#263238"/>
<path d="M233.075 94.0428C233.809 96.692 235.389 99.0285 237.574 100.697C240.486 102.852 242.641 100.697 242.437 97.4353C242.262 94.5233 240.515 89.7913 237.326 88.9177C234.138 88.0441 232.245 90.8251 233.075 94.0428Z" fill="#CB8A76"/>
<path d="M239.06 230.878C239.06 230.878 226.393 316.112 219.447 348.042C211.847 382.986 171.035 498.694 171.035 498.694L151.074 494.326C151.074 494.326 179.611 400.036 186.018 351.158C190.924 313.608 200.578 230.82 200.578 230.82L239.06 230.878Z" fill="#263238"/>
<path d="M175.826 492.04L172.098 499.32L149.632 494.457L151.525 487.702L175.826 492.04Z" fill="#0B5A79"/>
<path opacity="0.3" d="M231.05 261.25C216.418 264.162 217.946 318.689 219.737 346.761C223.945 326.916 230.133 288.739 234.297 261.643C233.289 261.155 232.146 261.016 231.05 261.25Z" fill="black"/>
<path d="M260.215 230.878C260.215 230.878 261.759 314.263 260.536 348.275C259.283 383.656 246.922 499.495 246.922 499.495H227.994C227.994 499.495 227.31 385.723 226.465 350.983C225.548 313.127 220.976 230.878 220.976 230.878H260.215Z" fill="#263238"/>
<path d="M250.562 491.968C250.649 491.968 249.484 499.801 249.484 499.801H226.508L225.882 492.812L250.562 491.968Z" fill="#0B5A79"/>
<path d="M259.836 133.006C262.748 134.214 265.558 136.383 266.402 143.591C267.218 150.507 265.645 211.12 263.752 230.47C263.726 231.134 263.464 231.767 263.013 232.256C262.562 232.744 261.952 233.056 261.292 233.135C249.367 233.644 212.428 228.665 199.965 230.849C198.509 231.111 197.242 229.509 197.33 228.053C198.305 209.198 196.893 178.768 194.592 159.447C193.136 146.823 193.136 133.617 203.663 131.375C211.496 129.715 248.45 128.259 259.836 133.006Z" fill="#0B5A79"/>
<path d="M264.451 149.75C265.121 152.953 265.907 156.433 266.635 159.752C267.363 163.072 268.266 166.435 269.197 169.711C270.129 172.987 271.09 176.205 272.197 179.277C273.191 182.191 274.438 185.012 275.924 187.707C276.466 188.743 277.115 189.719 277.861 190.619C278.137 190.925 278.356 191.129 278.414 191.187C278.472 191.245 278.414 191.318 278.691 191.406C279.628 191.716 280.617 191.845 281.603 191.784C283.067 191.721 284.526 191.565 285.971 191.318C292.545 189.934 299 188.035 305.277 185.64L309.514 192.92C303.497 197.751 296.755 201.604 289.538 204.335C287.524 205.075 285.448 205.635 283.335 206.009C280.779 206.492 278.159 206.532 275.589 206.126C273.937 205.846 272.34 205.305 270.857 204.524C269.521 203.778 268.279 202.873 267.159 201.831C265.383 200.172 263.814 198.304 262.485 196.269C258.372 189.508 255.184 182.226 253.007 174.618C251.915 171.022 250.91 167.425 250.095 163.8C249.279 160.174 248.464 156.651 247.838 152.793L264.451 149.75Z" fill="#CB8A76"/>
<path d="M239.918 145.382C230.862 163.596 252.382 184.184 252.382 184.184L276.377 171.662C274.701 162.009 271.952 152.574 268.179 143.532C261.19 127.982 245.131 134.913 239.918 145.382Z" fill="#263238"/>
<path d="M303.051 186.659L311.19 181.301L314.568 193.473C314.568 193.473 310.928 197.739 304.259 193.095L303.051 186.659Z" fill="#CB8A76"/>
<path d="M318.28 186.222L318.018 188.785C317.886 190.015 317.293 191.149 316.358 191.959L314.567 193.415L311.189 181.243L312.223 180.981C312.986 180.782 313.786 180.773 314.553 180.952C315.321 181.131 316.033 181.494 316.629 182.01C317.225 182.526 317.687 183.179 317.974 183.913C318.262 184.646 318.367 185.439 318.28 186.222Z" fill="#CB8A76"/>
</svg>
