<svg width="626" height="661" viewBox="0 0 626 661" fill="#0b5a7970" xmlns="http://www.w3.org/2000/svg">
<path d="M129.805 514.575C221.041 557.99 368.959 558.003 460.195 514.575C551.432 471.148 551.419 400.764 460.195 357.35C368.972 313.935 221.041 313.935 129.805 357.35C38.5677 400.764 38.5809 471.161 129.805 514.575Z" fill="#F5F5F5"/>
<path d="M459.878 482.49C476.681 482.49 490.303 476.009 490.303 468.014C490.303 460.02 476.681 453.539 459.878 453.539C443.074 453.539 429.452 460.02 429.452 468.014C429.452 476.009 443.074 482.49 459.878 482.49Z" fill="#EBEBEB"/>
<path d="M122.88 470.09L133.644 463.89C139.654 458.993 144.228 452.566 146.884 445.289C150.207 436.141 149.744 429.187 147.361 425.697C144.435 421.401 136.848 422.154 136.544 431.197C135.908 449.017 130.705 461.378 122.88 470.09Z" fill="#0B5A79"/>
<path opacity="0.2" d="M122.88 470.09L133.644 463.89C139.654 458.993 144.228 452.566 146.884 445.289C150.207 436.141 149.744 429.187 147.361 425.697C144.435 421.401 136.848 422.154 136.544 431.197C135.908 449.017 130.705 461.378 122.88 470.09Z" fill="black"/>
<path d="M122.88 470.751C122.74 470.749 122.604 470.703 122.492 470.619C122.379 470.535 122.297 470.418 122.255 470.284C122.214 470.151 122.216 470.007 122.262 469.875C122.308 469.742 122.394 469.628 122.509 469.548C147.4 452.362 142.581 428.394 142.528 428.156C142.51 428.069 142.509 427.98 142.525 427.892C142.542 427.805 142.575 427.722 142.624 427.648C142.672 427.574 142.735 427.51 142.808 427.46C142.882 427.41 142.964 427.374 143.051 427.356C143.138 427.338 143.228 427.337 143.315 427.353C143.402 427.37 143.486 427.403 143.56 427.452C143.634 427.5 143.698 427.563 143.749 427.636C143.799 427.709 143.834 427.792 143.852 427.878C143.852 428.13 148.936 452.917 123.304 470.632C123.179 470.717 123.03 470.759 122.88 470.751Z" fill="white"/>
<path d="M101.312 482.53C101.312 482.53 97.5651 479.489 98.4654 475.365C99.3657 471.24 101.789 468.279 97.6445 462.964C93.5004 457.65 92.3485 450.564 97.3003 446.73C101.074 443.756 106.965 447.96 109.084 440.12C110.646 434.383 110.117 421.678 117.438 417.448C124.76 413.217 129.354 419.589 128.202 428.209C127.196 435.916 125.766 443.333 126.878 445.395C129.023 449.361 132.691 448.819 132.519 456.063C132.373 462.806 125.978 468.384 125.978 468.384L101.312 482.53Z" fill="#0B5A79"/>
<path d="M113.612 476.065C113.45 476.064 113.294 476.004 113.173 475.897C113.051 475.791 112.972 475.644 112.95 475.484C111.057 459.818 115.598 432.77 119.305 424.732C119.336 424.643 119.386 424.562 119.452 424.493C119.517 424.425 119.596 424.372 119.684 424.337C119.772 424.302 119.866 424.286 119.961 424.29C120.055 424.294 120.148 424.319 120.232 424.362C120.311 424.398 120.382 424.449 120.441 424.512C120.5 424.575 120.546 424.65 120.575 424.731C120.605 424.813 120.618 424.899 120.613 424.986C120.609 425.072 120.587 425.157 120.55 425.235C116.882 433.167 112.5 460.294 114.314 475.272C114.332 475.446 114.281 475.619 114.172 475.756C114.063 475.892 113.905 475.979 113.731 475.999L113.612 476.065Z" fill="white"/>
<path d="M113.255 463.863C113.153 463.868 113.052 463.845 112.963 463.797C108.369 461.563 105.456 453.591 105.337 453.221C105.305 453.139 105.289 453.051 105.291 452.963C105.293 452.874 105.313 452.787 105.35 452.707C105.386 452.626 105.438 452.554 105.503 452.494C105.568 452.434 105.644 452.387 105.728 452.357C105.811 452.327 105.899 452.314 105.988 452.319C106.076 452.323 106.163 452.346 106.242 452.384C106.322 452.423 106.393 452.477 106.451 452.544C106.509 452.61 106.554 452.688 106.582 452.772C106.582 452.851 109.428 460.571 113.546 462.568C113.681 462.633 113.79 462.742 113.854 462.877C113.919 463.013 113.936 463.166 113.902 463.312C113.868 463.458 113.786 463.588 113.668 463.681C113.55 463.774 113.405 463.824 113.255 463.824V463.863Z" fill="white"/>
<path d="M113.175 469.151C113.042 469.151 112.913 469.111 112.804 469.035C112.695 468.96 112.612 468.852 112.566 468.728C112.5 468.567 112.501 468.386 112.568 468.225C112.635 468.064 112.762 467.936 112.923 467.869C120.656 464.775 125.475 455.587 125.528 455.482C125.609 455.326 125.748 455.208 125.916 455.155C126.083 455.101 126.265 455.117 126.422 455.197C126.578 455.278 126.696 455.417 126.749 455.585C126.802 455.752 126.787 455.934 126.706 456.09C126.494 456.486 121.609 465.82 113.466 469.098C113.376 469.141 113.275 469.16 113.175 469.151Z" fill="white"/>
<path d="M383.443 398.028C383.443 398.028 377.657 388.668 377.088 378.502C376.519 368.336 378.756 364.105 381.828 362.889C384.9 361.673 385.138 365.414 386.713 367.622C388.289 369.829 391.506 368.574 392.698 361.686C393.889 354.798 398.232 343.178 407.262 340.917C417.192 338.458 411.869 350.092 409.367 354.626C406.865 359.161 404.932 365.348 406.573 367.027C408.215 368.706 410.77 365.599 413.193 368.481C416.146 371.958 406.971 384.477 401.701 387.505L383.443 398.028Z" fill="#0B5A79"/>
<path d="M391.374 394.101C391.287 394.098 391.201 394.077 391.122 394.041C391.043 394.005 390.972 393.953 390.913 393.889C390.854 393.825 390.808 393.751 390.778 393.669C390.748 393.587 390.735 393.501 390.738 393.414C391.635 377.06 396.743 361.214 405.567 347.408C405.617 347.336 405.681 347.275 405.756 347.229C405.83 347.182 405.913 347.151 405.999 347.138C406.086 347.124 406.175 347.128 406.26 347.15C406.345 347.171 406.424 347.21 406.494 347.263C406.633 347.366 406.726 347.519 406.753 347.689C406.78 347.86 406.739 348.034 406.64 348.175C397.973 361.779 392.957 377.381 392.076 393.48C392.071 393.567 392.048 393.652 392.01 393.73C391.972 393.808 391.919 393.878 391.854 393.936C391.789 393.994 391.713 394.038 391.63 394.067C391.548 394.095 391.461 394.107 391.374 394.101Z" fill="white"/>
<path d="M392.129 386.288C392.018 386.287 391.909 386.26 391.811 386.209C388.104 384.16 386.051 378.079 385.972 377.827C385.943 377.745 385.93 377.658 385.935 377.57C385.94 377.483 385.962 377.398 386 377.319C386.038 377.24 386.092 377.17 386.157 377.112C386.223 377.054 386.3 377.01 386.382 376.981C386.549 376.927 386.731 376.941 386.887 377.021C387.044 377.1 387.162 377.238 387.217 377.404C387.217 377.404 389.203 383.261 392.513 385.046C392.663 385.134 392.772 385.277 392.819 385.445C392.866 385.612 392.846 385.791 392.764 385.945C392.704 386.058 392.612 386.152 392.499 386.213C392.386 386.274 392.257 386.3 392.129 386.288Z" fill="white"/>
<path d="M392.777 382.283C392.631 382.281 392.489 382.231 392.374 382.14C392.259 382.049 392.177 381.923 392.142 381.78C392.12 381.697 392.115 381.61 392.128 381.525C392.14 381.44 392.169 381.358 392.213 381.284C392.258 381.21 392.316 381.146 392.386 381.095C392.456 381.044 392.535 381.007 392.619 380.987C402.178 378.568 405.488 373.571 405.514 373.518C405.561 373.444 405.622 373.38 405.694 373.33C405.766 373.28 405.846 373.244 405.932 373.225C406.017 373.206 406.106 373.204 406.192 373.219C406.278 373.234 406.361 373.266 406.434 373.313C406.508 373.36 406.572 373.421 406.623 373.492C406.673 373.564 406.709 373.645 406.728 373.73C406.747 373.815 406.749 373.904 406.734 373.99C406.719 374.076 406.687 374.158 406.64 374.232C406.494 374.457 403.052 379.705 392.95 382.27L392.777 382.283Z" fill="white"/>
<path d="M239.392 377.484C239.392 377.484 226.695 374.39 226.033 350.647C225.331 325.027 229.144 295.123 214.117 292.704C199.089 290.285 190.748 308.568 190.934 329.918C191.106 348.611 198.653 389.197 239.339 397.155L239.392 377.484Z" fill="#0B5A79"/>
<path opacity="0.2" d="M239.392 377.484C239.392 377.484 226.695 374.39 226.033 350.647C225.331 325.027 229.144 295.123 214.117 292.704C199.089 290.285 190.748 308.568 190.934 329.918C191.106 348.611 198.653 389.197 239.339 397.155L239.392 377.484Z" fill="black"/>
<path d="M239.392 394.723H239.273C230.124 393.057 222.67 388.02 217.122 379.771C200.678 355.274 205.855 309.533 207.563 301.548C207.601 301.378 207.704 301.229 207.85 301.133C207.995 301.037 208.172 301.001 208.344 301.033C208.516 301.074 208.665 301.179 208.761 301.326C208.857 301.474 208.892 301.653 208.86 301.826C207.179 309.758 202.029 354.917 218.221 379.031C220.578 382.77 223.688 385.98 227.353 388.456C231.018 390.932 235.158 392.62 239.511 393.414C239.597 393.43 239.68 393.463 239.753 393.511C239.827 393.559 239.89 393.621 239.94 393.693C239.989 393.766 240.023 393.847 240.041 393.933C240.058 394.019 240.058 394.108 240.041 394.194C240.013 394.344 239.932 394.48 239.813 394.577C239.694 394.674 239.545 394.725 239.392 394.723Z" fill="white"/>
<path d="M239.392 455.654C226.271 457.425 204.968 457.399 192.668 447.722C180.368 438.045 182.937 429.716 187.663 426.239C192.39 422.762 196.494 418.796 188.365 411.076C180.236 403.355 167.181 390.955 162.944 372.355C158.707 353.754 160.799 342.12 169.114 338.247C177.177 334.492 179.309 340.468 184.247 352.789C189.186 365.11 200.294 354.547 209.801 358.394C219.307 362.241 218.923 369.856 219.519 376.4C220.115 382.944 223.252 384.755 228.641 384.755C234.03 384.755 239.392 387.848 239.392 394.009V455.654Z" fill="#0B5A79"/>
<path d="M239.392 434.052C239.335 434.065 239.277 434.065 239.22 434.052C238.651 433.894 225.08 429.954 205.312 411.829C184.261 392.528 174.331 363.576 174.225 363.286C174.174 363.119 174.19 362.939 174.269 362.784C174.348 362.629 174.484 362.51 174.648 362.453C174.813 362.398 174.993 362.41 175.15 362.487C175.306 362.564 175.425 362.699 175.482 362.863C175.575 363.153 185.412 391.788 206.213 410.851C225.702 428.738 239.432 432.743 239.577 432.783C239.661 432.807 239.739 432.848 239.806 432.902C239.874 432.957 239.931 433.024 239.972 433.1C240.014 433.176 240.041 433.26 240.05 433.346C240.059 433.432 240.052 433.519 240.027 433.603C239.985 433.736 239.899 433.852 239.785 433.933C239.67 434.014 239.532 434.056 239.392 434.052Z" fill="white"/>
<path d="M210.833 416.43C210.7 416.432 210.57 416.392 210.461 416.316C210.351 416.241 210.269 416.132 210.224 416.007C205.974 405.114 205.008 381.807 204.928 380.815C204.925 380.641 204.989 380.472 205.107 380.344C205.226 380.215 205.389 380.138 205.564 380.128C205.737 380.13 205.903 380.197 206.03 380.314C206.157 380.431 206.236 380.591 206.252 380.762C206.252 381 207.245 404.836 211.416 415.531C211.448 415.613 211.463 415.7 211.461 415.787C211.459 415.875 211.439 415.961 211.404 416.041C211.368 416.121 211.317 416.193 211.253 416.253C211.189 416.313 211.114 416.36 211.032 416.39C210.968 416.413 210.901 416.427 210.833 416.43Z" fill="white"/>
<path d="M210.727 432.096C209.507 432.105 208.287 432.043 207.073 431.91C206.986 431.9 206.902 431.873 206.826 431.83C206.749 431.787 206.682 431.73 206.628 431.661C206.574 431.592 206.534 431.513 206.511 431.429C206.487 431.345 206.48 431.257 206.491 431.17C206.501 431.083 206.528 430.999 206.571 430.923C206.614 430.847 206.672 430.78 206.741 430.726C206.809 430.672 206.888 430.632 206.973 430.608C207.057 430.585 207.145 430.578 207.232 430.588C207.351 430.588 219.678 431.99 225.331 426.239C225.39 426.17 225.463 426.113 225.544 426.073C225.626 426.032 225.716 426.009 225.807 426.005C225.898 426.001 225.989 426.016 226.074 426.049C226.159 426.081 226.237 426.131 226.302 426.195C226.367 426.259 226.418 426.336 226.451 426.42C226.485 426.505 226.501 426.595 226.498 426.686C226.496 426.777 226.474 426.867 226.435 426.949C226.396 427.031 226.34 427.105 226.271 427.164C222.18 431.382 215.044 432.096 210.727 432.096Z" fill="white"/>
<path d="M201.195 181.762L199.765 173.526L192.403 178.364C191.731 177.042 190.777 175.883 189.61 174.967L193.131 165.448L186.511 163.981L181.666 173.235C179.912 173.53 178.213 174.082 176.621 174.874L174.516 167.894L166.651 174.068L167.168 182.264C165.566 184.055 164.114 185.974 162.825 188.001L156.338 187.671L151.783 197.864L157.357 200.243C156.775 202.351 156.407 204.513 156.258 206.695L149.175 213.199L150.591 221.448L157.966 216.61C158.635 217.93 159.589 219.086 160.76 219.994L157.304 229.525L163.924 230.98L170.862 224.237C172.464 223.986 172.067 220.972 173.814 220.113L175.919 227.067L183.771 220.906L183.572 217.68C185.161 215.909 191.172 212.009 192.469 209.973L194.098 207.329L198.653 197.136L196.534 193.303L194.177 188.306L201.195 181.762ZM177.164 208.876C171.127 213.609 169.22 214.653 168.201 208.321C167.181 201.988 170.637 192.364 176.674 187.618C182.712 182.872 185.015 182.542 186.101 188.861C187.187 195.18 183.215 204.196 177.164 208.876Z" fill="#E0E0E0"/>
<path d="M186.564 163.981L195.157 168.925L190.311 178.153L181.719 173.208L186.564 163.981Z" fill="#F5F5F5"/>
<path d="M208.357 178.47L200.996 183.308L192.403 178.364L199.765 173.526L208.357 178.47Z" fill="#F5F5F5"/>
<path d="M207.179 202.041L201.605 199.675L193.012 194.73L198.586 197.097L207.179 202.041Z" fill="#E0E0E0"/>
<path d="M157.291 229.526L165.884 234.457L169.405 224.938L160.813 219.994L157.291 229.526Z" fill="#E0E0E0"/>
<path d="M184.433 232.011L175.853 227.067L173.748 220.113L182.341 225.057L184.433 232.011Z" fill="#E0E0E0"/>
<path d="M209.774 186.706L208.357 178.47L200.996 183.308C200.318 181.986 199.361 180.827 198.189 179.911L201.711 170.392L195.157 168.925L190.298 178.179C188.545 178.474 186.845 179.027 185.254 179.818L183.162 172.865L175.297 179.038L175.813 187.235C174.21 189.039 172.758 190.971 171.471 193.012L164.97 192.681L160.415 202.874L165.989 205.254C165.413 207.368 165.045 209.533 164.89 211.718L157.82 218.13L159.237 226.379L166.598 221.541C167.276 222.859 168.234 224.014 169.405 224.925L165.883 234.443L172.503 235.911L177.349 226.657C179.109 226.365 180.815 225.808 182.407 225.004L184.499 231.958L192.363 225.797L191.847 217.601C193.449 215.81 194.901 213.891 196.19 211.864L202.691 212.181L207.245 201.988L201.592 199.622C202.178 197.51 202.55 195.344 202.704 193.157L209.774 186.706ZM185.77 213.873C179.746 218.606 173.973 217.323 172.874 211.004C171.775 204.685 175.787 195.709 181.824 190.976C187.862 186.243 193.621 187.539 194.72 193.858C195.819 200.177 191.807 209.14 185.77 213.873Z" fill="#EBEBEB"/>
<path d="M183.162 172.838L174.569 167.894L166.704 174.068L175.297 179.012L183.162 172.838Z" fill="#F5F5F5"/>
<path d="M166.704 174.068L167.221 182.264L175.814 187.208L175.297 179.012L166.704 174.068Z" fill="#E0E0E0"/>
<path d="M171.471 192.946L162.878 188.002L156.39 187.684L164.97 192.629L171.471 192.946Z" fill="#F5F5F5"/>
<path d="M156.39 187.684L151.836 197.864L160.415 202.808L164.97 192.629L156.39 187.684Z" fill="#E0E0E0"/>
<path d="M164.89 211.639L156.311 206.695L149.228 213.199L157.807 218.143L164.89 211.639Z" fill="#F5F5F5"/>
<path d="M159.237 226.393L150.644 221.448L149.228 213.199L157.807 218.143L159.237 226.393Z" fill="#E0E0E0"/>
<path d="M195.157 168.925L186.564 163.981L193.131 165.448L201.711 170.392L195.157 168.925Z" fill="#F5F5F5"/>
<path d="M162.719 144.376V132.068L152.908 136.483C152.389 134.395 151.491 132.419 150.26 130.653L156.443 118.213L148.897 113.864L141.191 125.431C139.044 125.244 136.88 125.455 134.809 126.053L133.724 115.358L123.052 121.518L121.98 133.416C119.657 135.471 117.522 137.727 115.598 140.158L107.892 137.514L100.346 150.576L106.515 155.864C105.375 158.742 104.489 161.715 103.867 164.748L94.0565 171.635V183.956L103.867 179.541C104.387 181.629 105.284 183.605 106.515 185.371L100.372 197.824L107.919 202.173L115.624 190.606C117.772 190.793 119.935 190.582 122.006 189.985L123.079 200.68L133.75 194.519L134.836 182.621C138.166 181.408 141.117 179.337 143.389 176.619L148.923 178.562L156.47 165.514L151.836 161.548C152.842 158.241 153.215 154.774 152.935 151.329L162.719 144.376ZM128.388 175.125C120.206 179.845 115.148 176.447 115.148 167.048C115.148 157.648 121.913 146.028 130.109 141.308C138.305 136.589 143.256 139.986 143.256 149.465C143.256 158.944 136.583 170.392 128.388 175.125Z" fill="#E0E0E0"/>
<path d="M157.476 118.795L148.897 113.864L141.191 125.431L149.77 130.376L157.476 118.795Z" fill="#F5F5F5"/>
<path d="M171.312 137.012L162.719 132.068L152.908 136.483L161.501 141.427L171.312 137.012Z" fill="#F5F5F5"/>
<path d="M131.632 205.624L123.052 200.68L121.98 189.985L130.559 194.929L131.632 205.624Z" fill="#E0E0E0"/>
<path d="M100.332 197.824L108.925 202.768L115.108 190.328L106.515 185.384L100.332 197.824Z" fill="#E0E0E0"/>
<path d="M171.312 149.386V137.078L161.501 141.454C160.987 139.364 160.089 137.387 158.853 135.624L165.036 123.184L157.489 118.821L149.784 130.402C147.636 130.208 145.471 130.419 143.402 131.023L142.316 120.302L131.645 126.462L130.559 138.36C128.24 140.419 126.105 142.675 124.178 145.103L116.472 142.459L108.925 155.52L115.108 160.808C113.962 163.685 113.076 166.658 112.46 169.692L102.649 176.579V188.901L112.46 184.485C112.974 186.575 113.872 188.552 115.108 190.315L108.925 202.755L116.472 207.104L124.178 195.537C126.325 195.724 128.489 195.514 130.559 194.916L131.645 205.611L142.316 199.45L143.389 187.552C145.711 185.497 147.847 183.241 149.77 180.81L157.476 183.454L165.023 170.406L158.84 165.118C159.986 162.241 160.872 159.268 161.488 156.234L171.312 149.386ZM136.981 180.136C128.785 184.855 122.139 181.021 122.139 171.582C122.139 162.143 128.759 150.655 136.981 145.922C145.203 141.19 151.809 145.037 151.809 154.476C151.809 163.915 145.163 175.337 136.981 180.07V180.136Z" fill="#EBEBEB"/>
<path d="M115.598 140.185L124.178 145.129L116.472 142.446L107.892 137.488L115.598 140.185Z" fill="#F0F0F0"/>
<path d="M107.891 137.501L100.343 150.567L108.932 155.515L116.481 142.449L107.891 137.501Z" fill="#F5F5F5"/>
<path d="M100.332 150.549L108.925 155.494L115.108 160.808L106.515 155.877L100.332 150.549Z" fill="#E0E0E0"/>
<path d="M103.867 164.761L112.46 169.705L102.649 176.593L94.0565 171.648L103.867 164.761Z" fill="#F5F5F5"/>
<path d="M94.0565 171.648L102.649 176.593V188.914L94.0565 183.969V171.648Z" fill="#E0E0E0"/>
<path d="M142.316 120.302L133.724 115.358L123.052 121.518L131.632 126.462L142.316 120.302Z" fill="#F5F5F5"/>
<path d="M252.473 473.342L376.929 401.584C377.203 401.488 377.441 401.309 377.609 401.072C377.777 400.835 377.867 400.552 377.867 400.262C377.867 399.972 377.777 399.689 377.609 399.452C377.441 399.215 377.203 399.036 376.929 398.94L365.424 392.33C364.711 391.972 363.924 391.785 363.126 391.785C362.329 391.785 361.542 391.972 360.829 392.33L236.334 464.022C236.059 464.118 235.822 464.297 235.654 464.534C235.486 464.771 235.396 465.054 235.396 465.344C235.396 465.634 235.486 465.917 235.654 466.154C235.822 466.391 236.059 466.57 236.334 466.666L247.879 473.276C248.586 473.644 249.37 473.842 250.168 473.854C250.966 473.865 251.755 473.69 252.473 473.342Z" fill="#E0E0E0"/>
<path d="M373.513 124.533L261.291 189.231C259.623 190.318 258.234 191.782 257.238 193.505C256.242 195.228 255.667 197.16 255.558 199.146V464.961C255.558 468.609 258.127 470.09 261.291 468.266L373.513 403.567C375.184 402.482 376.574 401.019 377.57 399.296C378.566 397.573 379.141 395.639 379.246 393.652V127.838C379.246 124.189 376.691 122.708 373.513 124.533Z" fill="#455A64"/>
<path d="M261.291 189.231L373.513 124.532C376.347 122.893 378.69 123.911 379.167 126.753C378.902 124.966 378.261 123.256 377.287 121.734C376.313 120.211 375.026 118.913 373.513 117.922L368.853 115.278C367.076 114.378 365.112 113.909 363.12 113.909C361.128 113.909 359.164 114.378 357.387 115.278L245.151 179.924C243.461 180.983 242.067 182.452 241.1 184.194L257.24 193.448C258.206 191.72 259.601 190.268 261.291 189.231Z" fill="#37474F"/>
<path d="M239.392 455.654C239.501 457.64 240.076 459.573 241.072 461.295C242.068 463.018 243.457 464.482 245.125 465.569L249.799 468.213C251.416 469.021 253.187 469.479 254.994 469.556C256.801 469.634 258.604 469.329 260.285 468.662C257.637 469.694 255.532 468.173 255.532 464.908V199.146C255.598 197.152 256.177 195.208 257.213 193.501L241.074 184.247C240.052 185.941 239.474 187.864 239.392 189.839V455.654Z" fill="#263238"/>
<path d="M264.376 224.648L370.468 163.505C372.375 162.421 373.91 163.307 373.91 165.488V362.228C373.847 363.42 373.502 364.581 372.904 365.615C372.305 366.649 371.471 367.527 370.468 368.177L264.416 429.32C262.509 430.417 260.973 429.531 260.973 427.337V230.597C261.033 229.408 261.373 228.25 261.964 227.217C262.555 226.183 263.381 225.303 264.376 224.648Z" fill="white"/>
<path d="M317.402 166.956C316.817 167.339 316.329 167.855 315.98 168.461C315.63 169.068 315.428 169.747 315.39 170.446C315.39 171.768 316.29 172.257 317.402 171.609C317.99 171.227 318.479 170.712 318.829 170.106C319.178 169.499 319.379 168.818 319.415 168.119C319.415 166.837 318.514 166.321 317.402 166.956Z" fill="#37474F"/>
<path d="M317.402 408.154C315.088 409.666 313.162 411.701 311.782 414.095C310.402 416.488 309.606 419.172 309.458 421.93C309.458 426.993 313.02 429.055 317.402 426.517C319.716 425.004 321.641 422.969 323.021 420.576C324.401 418.183 325.197 415.499 325.346 412.742C325.373 407.679 321.798 405.616 317.402 408.154Z" fill="#37474F"/>
<path d="M298.35 187.42C297.186 188.191 296.22 189.225 295.53 190.437C294.84 191.65 294.446 193.007 294.378 194.4C294.378 196.965 296.178 198.009 298.35 196.727C299.526 195.963 300.504 194.933 301.206 193.72C301.908 192.507 302.313 191.146 302.388 189.747C302.388 187.182 300.587 186.138 298.35 187.42Z" fill="#37474F"/>
<path d="M308.24 186.547C308.24 188.266 309.564 188.914 311.113 188.002L337.593 172.706C338.413 172.195 339.101 171.497 339.6 170.67C340.1 169.843 340.396 168.91 340.466 167.947C340.466 166.241 339.142 165.594 337.593 166.506L311.113 181.801C310.295 182.312 309.608 183.007 309.109 183.832C308.61 184.656 308.312 185.587 308.24 186.547Z" fill="#37474F"/>
<path d="M248.342 233.161C249.282 233.772 250.064 234.596 250.625 235.565C251.187 236.534 251.511 237.622 251.573 238.74C251.573 240.802 250.13 241.635 248.342 240.604C247.406 239.991 246.627 239.166 246.068 238.197C245.509 237.228 245.186 236.142 245.125 235.025C245.125 232.976 246.568 232.143 248.342 233.161Z" fill="#37474F"/>
<path d="M248.342 257.988C249.282 258.6 250.064 259.423 250.625 260.392C251.187 261.362 251.511 262.449 251.573 263.567C251.573 265.616 250.13 266.449 248.342 265.431C247.406 264.818 246.627 263.994 246.068 263.025C245.509 262.056 245.186 260.969 245.125 259.852C245.125 257.79 246.568 256.957 248.342 257.988Z" fill="#37474F"/>
<path d="M247.336 233.664C248.276 234.275 249.058 235.098 249.619 236.068C250.18 237.037 250.505 238.125 250.567 239.243C250.567 241.292 249.123 242.124 247.336 241.107C246.396 240.495 245.614 239.672 245.053 238.703C244.492 237.733 244.167 236.646 244.105 235.528C244.119 233.465 245.562 232.672 247.336 233.664Z" fill="#455A64"/>
<path d="M247.336 258.478C248.277 259.09 249.061 259.916 249.622 260.887C250.183 261.859 250.507 262.949 250.567 264.07C250.567 266.119 249.123 266.952 247.336 265.92C246.394 265.312 245.61 264.489 245.049 263.519C244.487 262.549 244.164 261.46 244.105 260.342C244.119 258.292 245.562 257.46 247.336 258.478Z" fill="#455A64"/>
<path d="M395.386 171.715C395.386 169.52 393.85 168.634 391.943 169.732L379.246 177.042L285.891 230.874C284.888 231.525 284.054 232.403 283.455 233.437C282.857 234.471 282.512 235.631 282.448 236.823V433.51C282.448 435.705 283.984 436.591 285.891 435.493L379.286 381.648L391.943 374.351C392.946 373.7 393.781 372.822 394.379 371.788C394.977 370.755 395.322 369.594 395.386 368.402V171.715Z" fill="white"/>
<path d="M396.71 171.715C396.793 171.052 396.679 170.379 396.381 169.78C396.084 169.182 395.616 168.685 395.036 168.35C394.457 168.016 393.792 167.859 393.124 167.9C392.456 167.942 391.815 168.179 391.281 168.582L379.167 175.575L285.229 229.777C284.019 230.539 283.014 231.584 282.299 232.82C281.584 234.057 281.181 235.449 281.125 236.876V433.51C281.071 434.17 281.198 434.832 281.492 435.426C281.786 436.02 282.235 436.523 282.793 436.881C283.267 437.157 283.807 437.298 284.355 437.291C285.131 437.267 285.888 437.044 286.553 436.643L380.557 382.441L392.645 375.474C393.848 374.705 394.848 373.659 395.562 372.423C396.276 371.188 396.683 369.8 396.749 368.375L396.71 171.715ZM379.193 380.181L378.108 380.815L285.282 434.33C285.126 434.45 284.945 434.533 284.753 434.574C284.56 434.615 284.361 434.613 284.17 434.568C283.998 434.462 283.825 434.092 283.825 433.484V236.823C283.894 235.863 284.18 234.931 284.662 234.098C285.143 233.264 285.808 232.551 286.606 232.011L379.339 178.47L392.579 170.816C392.735 170.696 392.916 170.613 393.108 170.571C393.3 170.53 393.5 170.532 393.691 170.578C393.863 170.683 394.035 171.054 394.035 171.662V368.402C393.967 369.362 393.681 370.294 393.199 371.127C392.718 371.961 392.053 372.674 391.255 373.214L379.167 380.181H379.193Z" fill="#0B5A79"/>
<path d="M338.917 217.416C350.833 210.568 360.432 216.094 360.432 229.83C360.432 243.565 350.793 260.236 338.917 267.031C327.041 273.826 317.402 268.353 317.402 254.63C317.402 240.908 327.041 224.277 338.917 217.416Z" fill="#0B5A79"/>
<path d="M338.917 228.204C342.77 225.983 345.895 227.781 345.895 232.17C345.764 234.587 345.064 236.941 343.851 239.038C342.639 241.135 340.949 242.917 338.917 244.239C335.064 246.46 331.94 244.663 331.94 240.273C332.071 237.856 332.771 235.503 333.983 233.405C335.195 231.308 336.886 229.526 338.917 228.204Z" fill="#0B5A79"/>
<path d="M352.515 251.894C352.515 244.597 347.391 241.635 341.049 245.284L337.077 247.571C330.748 251.22 325.611 260.104 325.611 267.401V269.371C329.278 270.574 333.886 269.926 338.851 267.031C344.351 263.643 349.002 259.045 352.448 253.586L352.515 251.894Z" fill="#0B5A79"/>
<path opacity="0.7" d="M338.917 228.204C342.77 225.983 345.895 227.781 345.895 232.17C345.764 234.587 345.064 236.941 343.851 239.038C342.639 241.135 340.949 242.917 338.917 244.239C335.064 246.46 331.94 244.663 331.94 240.273C332.071 237.856 332.771 235.503 333.983 233.405C335.195 231.308 336.886 229.526 338.917 228.204Z" fill="white"/>
<path opacity="0.7" d="M352.515 251.894C352.515 244.597 347.391 241.635 341.049 245.284L337.077 247.571C330.748 251.22 325.611 260.104 325.611 267.401V269.371C329.278 270.574 333.886 269.926 338.851 267.031C344.351 263.643 349.002 259.045 352.448 253.586L352.515 251.894Z" fill="white"/>
<path d="M297.291 297.238L324.975 281.282C326.299 280.555 327.266 281.137 327.266 282.604V283.516C327.224 284.311 326.995 285.084 326.597 285.773C326.199 286.462 325.643 287.048 324.975 287.482L297.291 303.439C296.033 304.166 295 303.571 295 302.117V301.204C295.043 300.41 295.273 299.637 295.671 298.948C296.069 298.259 296.624 297.673 297.291 297.238Z" fill="#0B5A79"/>
<path opacity="0.1" d="M297.291 297.238L324.975 281.282C326.299 280.555 327.266 281.137 327.266 282.604V283.516C327.224 284.311 326.995 285.084 326.597 285.773C326.199 286.462 325.643 287.048 324.975 287.482L297.291 303.439C296.033 304.166 295 303.571 295 302.117V301.204C295.043 300.41 295.273 299.637 295.671 298.948C296.069 298.259 296.624 297.673 297.291 297.238Z" fill="black"/>
<path d="M296.152 316.5L379.908 268.221C380.53 267.851 381.047 268.141 381.047 268.882V278.638C381.023 279.034 380.909 279.419 380.711 279.763C380.513 280.107 380.239 280.401 379.908 280.621L296.152 328.901C295.516 329.271 295 328.967 295 328.24V318.483C295.023 318.086 295.139 317.699 295.339 317.354C295.539 317.01 295.818 316.717 296.152 316.5Z" fill="#0B5A79"/>
<path opacity="0.2" d="M296.152 316.5L379.908 268.221C380.53 267.851 381.047 268.141 381.047 268.882V278.638C381.023 279.034 380.909 279.419 380.711 279.763C380.513 280.107 380.239 280.401 379.908 280.621L296.152 328.901C295.516 329.271 295 328.967 295 328.24V318.483C295.023 318.086 295.139 317.699 295.339 317.354C295.539 317.01 295.818 316.717 296.152 316.5Z" fill="white"/>
<path d="M297.291 340.64L324.975 324.683C326.299 323.956 327.266 324.551 327.266 326.005V326.918C327.225 327.712 326.996 328.486 326.598 329.175C326.2 329.865 325.644 330.45 324.975 330.884L297.291 346.84C296.033 347.58 295 346.985 295 345.518V344.606C295.045 343.812 295.276 343.04 295.673 342.351C296.071 341.663 296.625 341.076 297.291 340.64Z" fill="#0B5A79"/>
<path opacity="0.1" d="M297.291 340.64L324.975 324.683C326.299 323.956 327.266 324.551 327.266 326.005V326.918C327.225 327.712 326.996 328.486 326.598 329.175C326.2 329.865 325.644 330.45 324.975 330.884L297.291 346.84C296.033 347.58 295 346.985 295 345.518V344.606C295.045 343.812 295.276 343.04 295.673 342.351C296.071 341.663 296.625 341.076 297.291 340.64Z" fill="black"/>
<path d="M296.152 359.901L379.908 311.622C380.53 311.252 381.047 311.556 381.047 312.283V322.039C381.023 322.435 380.909 322.82 380.711 323.164C380.513 323.509 380.239 323.802 379.908 324.022L296.152 372.302C295.516 372.672 295 372.381 295 371.641V361.884C295.023 361.487 295.139 361.1 295.339 360.756C295.539 360.411 295.818 360.118 296.152 359.901Z" fill="#0B5A79"/>
<path opacity="0.2" d="M296.152 359.901L379.908 311.622C380.53 311.252 381.047 311.556 381.047 312.283V322.039C381.023 322.435 380.909 322.82 380.711 323.164C380.513 323.509 380.239 323.802 379.908 324.022L296.152 372.302C295.516 372.672 295 372.381 295 371.641V361.884C295.023 361.487 295.139 361.1 295.339 360.756C295.539 360.411 295.818 360.118 296.152 359.901Z" fill="white"/>
<path d="M329.556 365.441L362.656 346.391C363.98 345.65 364.96 346.245 364.96 347.713V357.918C364.917 358.714 364.685 359.488 364.285 360.177C363.885 360.867 363.327 361.452 362.656 361.884L329.556 380.948C328.232 381.675 327.266 381.08 327.266 379.626V369.407C327.312 368.613 327.543 367.841 327.941 367.153C328.338 366.464 328.892 365.878 329.556 365.441Z" fill="#0B5A79"/>
<path opacity="0.1" d="M329.556 365.441L362.656 346.391C363.98 345.65 364.96 346.245 364.96 347.713V357.918C364.917 358.714 364.685 359.488 364.285 360.177C363.885 360.867 363.327 361.452 362.656 361.884L329.556 380.948C328.232 381.675 327.266 381.08 327.266 379.626V369.407C327.312 368.613 327.543 367.841 327.941 367.153C328.338 366.464 328.892 365.878 329.556 365.441Z" fill="black"/>
<path d="M407.937 322.37C407.937 322.37 391.678 299.975 390.725 297.252C389.97 295.242 390.725 292.254 390.964 290.866C391.202 289.478 391.414 286.385 391.652 285.578C392.049 284.071 390.103 284.375 389.004 285.75C387.905 287.125 387.534 289.875 386.965 290.324C386.396 290.774 382.066 284.468 379.802 281.559C377.538 278.651 376.121 276.88 374.731 277.964C373.738 278.744 374.48 280.436 376.121 282.921C377.08 284.259 377.964 285.65 378.769 287.085C379.021 287.627 377.671 287.667 376.942 288.791C376.373 289.663 376.942 291.078 376.148 291.752C375.659 292.124 375.324 292.662 375.207 293.264C375.09 293.866 375.198 294.49 375.512 295.017C376.986 297.328 378.887 299.338 381.113 300.94C383.549 302.619 384.529 303.214 385.972 305.501C387.415 307.788 400.364 331.148 401.238 332.549C402.112 333.95 403.793 336.806 406.348 336.885C408.904 336.965 429.823 318.985 430.895 318.086C434.338 315.218 435.437 314.808 436.019 317.386C436.22 318.302 436.371 319.229 436.469 320.162C436.88 323.44 439.117 335.153 439.117 335.153C439.117 335.153 449.709 340.27 458.408 337.797C467.107 335.325 470.046 331.637 470.046 331.637L465.69 324.551C466.868 321.629 472.31 309.784 474.071 301.495L446.797 297.093C446.24 296.974 445.34 296.749 444.149 296.445C442.652 296.049 438.853 294.74 435.98 297.252C426.606 305.408 407.964 322.37 407.964 322.37" fill="#FFA8A7"/>
<path d="M462.009 459.778L457.124 466.56C459.344 467.595 461.77 468.115 464.22 468.081C468.603 468.239 469.808 466.759 469.967 466.468C470.708 464.881 469.556 462.026 469.238 459.567L462.009 459.778Z" fill="#37474F"/>
<path d="M457.402 463.308C457.402 463.308 451.47 462.925 447.379 462.422C443.288 461.92 440.044 463.903 440.997 465.582C441.951 467.261 444.215 468.662 447.737 469.839C450.742 470.857 454.357 471.584 457.481 472.483C460.606 473.382 462.777 474.558 464.591 473.924C466.617 473.223 467.491 472.417 467.319 470.936C466.876 468.83 466.329 466.747 465.677 464.696L457.402 463.308Z" fill="#37474F"/>
<path d="M469.967 452.97C469.967 452.97 469.225 459.131 469.172 460.453C469.119 461.775 463.148 462.198 462.009 459.778L461.824 452.243L469.967 452.97Z" fill="#F28F8F"/>
<path d="M463.956 456.751L466.087 466.111C466.087 466.111 466.286 467.248 461.414 467.975C456.541 468.702 448.888 465.423 447.578 464.762C446.267 464.101 446.121 462.766 450.914 463.03C455.707 463.295 457.402 463.308 457.402 463.308L455.84 459.17L463.956 456.751Z" fill="#FFA8A7"/>
<path d="M473.992 301.416L477.368 300.477C477.368 300.477 484.425 322.779 485.206 324.934C485.987 327.089 486.874 329.363 485.351 332.02C483.538 335.18 473.992 347.884 473.992 347.884L467.928 341.962L474.812 329.376L468.722 317.082L473.992 301.416Z" fill="#F28F8F"/>
<path d="M439.316 272.451C438.524 270.967 438.123 269.308 438.148 267.627C438.174 265.946 438.626 264.299 439.462 262.84C442.825 256.613 450.318 253.586 459.242 254.736C463.373 255.278 468.245 258.702 470.907 263.818C473.846 269.49 474.124 280.912 474.879 285.235L439.316 272.451Z" fill="#37474F"/>
<path d="M439.078 274.897C439.078 274.897 436.959 278.929 437.33 279.299C437.879 279.619 438.479 279.843 439.104 279.96L439.078 274.897Z" fill="#FFA8A7"/>
<path d="M445.512 262.153C443.209 263.646 439.237 266.396 439.064 275.452C438.879 284.706 440.203 287.76 441.58 288.831C442.507 289.558 447.948 289.188 450.279 288.645C452.609 288.103 459.322 284.785 461.745 279.748C464.591 273.826 464.009 265.206 459.785 262.562C457.635 261.293 455.198 260.59 452.702 260.518C450.205 260.446 447.731 261.009 445.512 262.153Z" fill="#FFA8A7"/>
<path d="M469.967 331.584C474.044 337.93 477.911 343.482 478.758 350.647C480.506 365.705 474.786 382.917 473.555 394.062C475.87 397.232 477.205 401.009 477.394 404.929C477.394 409.542 469.967 452.97 469.967 452.97C469.967 452.97 464.565 454.609 461.824 452.243L456.727 372.354L459.375 362.625L469.967 331.584Z" fill="#0B5A79"/>
<path opacity="0.2" d="M469.967 331.584C474.044 337.93 477.911 343.482 478.758 350.647C480.506 365.705 474.786 382.917 473.555 394.062C475.87 397.232 477.205 401.009 477.394 404.929C477.394 409.542 469.967 452.97 469.967 452.97C469.967 452.97 464.565 454.609 461.824 452.243L456.727 372.354L459.375 362.625L469.967 331.584Z" fill="black"/>
<path d="M456.727 372.354L459.375 362.625C464.445 361.292 469.335 359.352 473.939 356.847C473.939 356.847 471.185 361.858 463.267 364.608L459.176 377.1L458.832 405.722L456.727 372.354Z" fill="#0B5A79"/>
<path opacity="0.3" d="M456.727 372.354L459.375 362.625C464.445 361.292 469.335 359.352 473.939 356.847C473.939 356.847 471.185 361.858 463.267 364.608L459.176 377.1L458.832 405.722L456.727 372.354Z" fill="black"/>
<path d="M469.967 331.584C472.151 335.153 477.368 341.235 476.256 347.091C474.932 354.177 471.092 359.161 459.414 362.625L448.452 402.285C448.452 402.285 454.158 407.573 455.906 412.689C457.653 417.805 463.956 456.777 463.956 456.777C463.956 456.777 461.996 459.963 455.839 459.197C455.839 459.197 434.377 410.283 432.868 407.097C431.036 403.87 430.394 400.105 431.054 396.455C431.729 391.325 438.998 335.18 438.998 335.18L469.967 331.584Z" fill="#0B5A79"/>
<path opacity="0.2" d="M469.967 331.584C472.151 335.153 477.368 341.235 476.256 347.091C474.932 354.177 471.092 359.161 459.414 362.625L448.452 402.285C448.452 402.285 454.158 407.573 455.906 412.689C457.653 417.805 463.956 456.777 463.956 456.777C463.956 456.777 461.996 459.963 455.839 459.197C455.839 459.197 434.377 410.283 432.868 407.097C431.036 403.87 430.394 400.105 431.054 396.455C431.729 391.325 438.998 335.18 438.998 335.18L469.967 331.584Z" fill="black"/>
<path d="M473.992 301.416L446.717 297.014C446.161 296.895 445.261 296.67 444.069 296.366C444.069 296.366 442.904 313.446 435.9 317.359C436.072 318.179 436.218 319.091 436.35 320.136C436.761 323.414 438.998 335.127 438.998 335.127C438.998 335.127 449.59 340.243 458.289 337.771C466.988 335.299 469.927 331.61 469.927 331.61L465.571 324.525C466.789 321.577 472.27 309.731 473.992 301.416Z" fill="#0B5A79"/>
<path opacity="0.7" d="M473.992 301.416L446.717 297.014C446.161 296.895 445.261 296.67 444.069 296.366C444.069 296.366 442.904 313.446 435.9 317.359C436.072 318.179 436.218 319.091 436.35 320.136C436.761 323.414 438.998 335.127 438.998 335.127C438.998 335.127 449.59 340.243 458.289 337.771C466.988 335.299 469.927 331.61 469.927 331.61L465.571 324.525C466.789 321.577 472.27 309.731 473.992 301.416Z" fill="white"/>
<path d="M466.802 321.709C463.18 323.88 459.385 325.751 455.456 327.301C459.022 327.23 462.514 326.266 465.611 324.498L466.802 321.709Z" fill="#0B5A79"/>
<path d="M444.837 262.602C444.837 262.602 443.513 271.195 446.638 276.245C446.638 276.245 447.803 272.821 450.702 273.469C453.602 274.117 453.761 277.937 451.722 280.079C451.204 280.68 450.526 281.122 449.767 281.356C449.009 281.59 448.199 281.606 447.432 281.401C447.432 281.401 446.969 287.614 446.717 292.823C446.466 298.032 445.089 309.388 450.954 313.975C456.819 318.562 471.542 320.175 478.44 310.551C482.28 305.197 477.182 295.731 474.812 285.116C472.628 275.359 471.396 260.897 461.03 258.57C450.663 256.243 444.837 262.602 444.837 262.602Z" fill="#37474F"/>
<path d="M482.876 145.195L480.691 146.517C480.874 145.741 480.976 144.948 480.996 144.151C480.996 139.722 477.884 137.937 474.045 140.185C472.876 140.889 471.833 141.782 470.96 142.829C470.96 136.88 466.776 134.461 461.612 137.435C458.891 139.207 456.627 141.594 455.003 144.403C453.379 147.212 452.441 150.364 452.265 153.603C452.265 153.907 452.265 154.198 452.265 154.489C450.935 154.322 449.588 154.631 448.465 155.361C446.442 156.678 444.758 158.452 443.55 160.54C442.342 162.628 441.645 164.971 441.514 167.378C441.513 167.938 441.571 168.496 441.686 169.044L440.521 169.718C437.356 171.543 434.788 175.099 434.788 177.65C434.788 180.202 437.356 180.81 440.521 178.972L482.889 154.581C486.053 152.757 488.622 149.201 488.622 146.649C488.622 144.098 486.04 143.358 482.876 145.195Z" fill="#EBEBEB"/>
</svg>
